<svg width="238" height="447" viewBox="0 0 238 447" fill="none" xmlns="http://www.w3.org/2000/svg">
<path d="M89.1998 436.881C109.461 449.125 142.296 449.125 162.557 436.881C182.819 424.636 182.791 404.814 162.557 392.57C142.324 380.325 109.461 380.325 89.1998 392.57C68.9386 404.814 68.966 424.581 89.1998 436.881Z" fill="#E0E0E0"/>
<path d="M236.407 131.401L185.974 102.299C184.848 101.695 183.229 102.107 181.252 103.617C180.209 104.386 179.165 105.154 178.122 105.868L176.942 106.609C176.255 107.049 175.569 107.515 174.855 107.927C174.141 108.339 173.867 108.476 173.373 108.778L171.533 109.794L169.831 110.645L168.129 111.469L166.234 112.265C165.713 112.485 165.191 112.732 164.642 112.924L162.583 113.693L161.128 114.214L158.904 114.901L157.586 115.285L155.198 115.889L153.99 116.163C153.166 116.356 152.315 116.52 151.464 116.658L150.421 116.85L147.675 117.234H146.769C145.836 117.234 144.875 117.426 144.024 117.481H143.283H140.318H139.714C138.698 117.481 137.682 117.481 136.666 117.481H136.2C135.156 117.481 134.086 117.481 133.042 117.262H132.74L129.473 116.822H129.309L127.799 116.52L96.5008 98.4555C94.1947 97.1652 92.0807 98.0986 90.708 101.476C72.5333 146.61 33.8229 192.376 8.01595 203.825C7.50298 204.043 7.00743 204.3 6.53349 204.593C6.2191 204.775 5.91646 204.977 5.62745 205.197L5.21565 205.472L4.09002 206.433C3.70566 206.79 3.34878 207.174 2.99187 207.558C1.15127 209.568 0.123746 212.191 0.109131 214.916L3.84294 260.765C3.84294 290.333 16.4169 321.521 42.0866 336.428L92.5474 365.502L92.9044 365.695C105.939 372.907 120.913 375.837 135.705 374.068C141.232 373.154 146.352 370.589 150.393 366.71C206.839 308.425 234.266 229.439 234.266 185.897L238 135.381C237.972 133.377 237.396 131.977 236.407 131.401Z" fill="#131E91"/>
<path opacity="0.4" d="M146.55 127.475C146.047 127.22 145.485 127.101 144.922 127.13C144.359 127.159 143.813 127.335 143.338 127.639L142.789 128.051C142.471 128.369 142.185 128.719 141.938 129.094C141.662 129.57 141.423 130.065 141.224 130.577C136.492 142.173 130.808 153.358 124.23 164.016C118.536 173.386 112.274 182.399 105.478 191.004C102.184 195.122 98.8895 199.048 95.5675 202.726C95.5791 202.771 95.5791 202.819 95.5675 202.864L92.8221 205.911C91.8612 206.872 90.9552 207.86 90.0767 208.794C89.61 209.315 89.1432 209.81 88.649 210.276C78.0517 220.929 67.674 228.89 58.8063 232.816C57.2948 233.489 55.9109 234.418 54.7157 235.562L53.6999 236.578C53.6426 236.665 53.5783 236.748 53.5077 236.825L53.6999 236.578L3.29395 207.531C3.33314 207.455 3.38954 207.389 3.45866 207.339C3.55132 207.189 3.66203 207.05 3.78818 206.927L4.09014 206.652C4.17463 206.554 4.26642 206.462 4.3647 206.378L4.66665 206.103C4.92739 205.85 5.20243 205.612 5.49033 205.39L5.90213 205.115C6.20412 204.923 6.50608 204.676 6.80808 204.511C7.27568 204.206 7.7723 203.949 8.29063 203.742C34.0976 192.294 72.8354 146.528 90.9826 101.393C91.971 98.9771 93.3163 97.7966 94.8537 97.7966C95.5366 97.8235 96.2 98.032 96.7755 98.4006L127.771 116.685L146.55 127.475Z" fill="white"/>
<path opacity="0.1" d="M236.409 131.401L185.976 102.299C184.877 101.723 183.23 102.134 181.281 103.617C180.265 104.413 179.194 105.182 178.124 105.896L176.971 106.637C176.284 107.076 175.598 107.543 174.884 107.955C174.17 108.366 173.896 108.504 173.402 108.806L171.562 109.822C171.013 110.124 170.437 110.371 169.86 110.645L168.158 111.496L166.236 112.292C165.742 112.539 165.193 112.759 164.671 112.979L162.612 113.72L161.157 114.242L158.906 114.928L157.588 115.312L155.227 115.916L154.046 116.191L151.493 116.685L150.422 116.877C149.544 117.042 148.665 117.152 147.677 117.262H146.771L144.026 117.536H143.284C142.296 117.536 141.308 117.536 140.319 117.536H139.743C138.699 117.536 137.684 117.536 136.668 117.536H136.229C135.158 117.536 134.087 117.399 133.044 117.317H132.742C131.644 117.317 130.546 117.069 129.502 116.905H129.338C128.826 116.839 128.321 116.728 127.828 116.575L146.606 127.392L146.936 127.584C147.65 128.031 148.281 128.598 148.803 129.259C148.935 129.374 149.055 129.503 149.16 129.643C168.377 152.101 206.374 152.074 231.714 132.691C233.636 131.236 235.228 130.769 236.299 131.263H236.464C236.965 131.562 237.345 132.029 237.535 132.581C237.302 132.073 236.906 131.657 236.409 131.401Z" fill="black"/>
<path opacity="0.2" d="M91.7519 365.365L41.9774 336.703C16.3352 321.768 3.73373 290.58 3.73373 261.012L0 215.163C0.0294006 213.402 0.46003 211.67 1.25927 210.1C2.0585 208.53 3.20528 207.164 4.61228 206.103C3.98901 206.621 3.41042 207.191 2.88266 207.806L53.316 236.852C51.5002 238.878 50.5193 241.517 50.5706 244.237L54.2769 290.086C54.1945 319.379 66.5489 350.293 91.7519 365.365Z" fill="black"/>
<path d="M237.891 135.656L234.157 186.172C234.157 229.824 206.703 308.7 150.312 366.985C146.263 370.879 141.117 373.438 135.569 374.315C120.8 376.137 105.832 373.254 92.7952 366.079L92.4382 365.887L91.7794 365.475C66.549 350.403 54.1671 319.517 54.1671 290.196L50.4608 244.347C50.4219 241.637 51.4017 239.011 53.2063 236.989C53.5148 236.631 53.8448 236.292 54.1946 235.974C55.3877 234.827 56.772 233.898 58.2852 233.228C67.1804 229.275 77.5032 221.313 88.1554 210.688L89.5831 209.206L92.3285 206.296L95.0739 203.248C98.4233 199.542 101.718 195.616 105.012 191.498C111.805 182.891 118.067 173.879 123.763 164.51C130.333 153.861 136.008 142.686 140.73 131.099C140.95 130.582 141.197 130.078 141.471 129.589C141.719 129.221 142.004 128.881 142.323 128.573C142.492 128.418 142.676 128.28 142.872 128.161C143.337 127.845 143.879 127.663 144.441 127.633C145.002 127.604 145.561 127.73 146.056 127.996L146.413 128.161C147.132 128.601 147.765 129.168 148.28 129.836L148.637 130.247C167.855 152.678 205.852 152.65 231.192 133.295C233.086 131.84 234.706 131.373 235.777 131.84H235.914C236.17 131.95 236.389 132.131 236.545 132.361C237.362 133.271 237.838 134.435 237.891 135.656Z" fill="#131E91"/>
<path d="M158.823 301.342L128.788 318.666L133.428 264.334C129.831 262.439 127.552 257.745 127.552 251.046C127.552 239.076 134.828 225.184 143.805 219.995C152.783 214.806 160.058 220.297 160.058 232.267C159.864 239.36 157.84 246.283 154.183 252.364L158.823 301.342Z" fill="#455A64"/>
<path d="M158.822 301.342L131.615 285.611L128.788 318.666L158.822 301.342Z" fill="#37474F"/>
<path d="M143.806 219.995C137.262 224.409 132.382 230.883 129.941 238.389L154.184 252.364C157.841 246.283 159.864 239.36 160.059 232.267C160.059 220.297 152.783 214.806 143.806 219.995Z" fill="#37474F"/>
<path d="M181.582 3.27177C173.346 -1.56017 162.748 -1.01109 152.783 4.72684L73.8517 50.3282C65.6237 55.5403 58.7857 62.674 53.9267 71.1152C49.0676 79.5565 46.333 89.0522 45.9583 98.7849V195.479C46.0729 196.704 46.5124 197.877 47.2315 198.876C47.9506 199.875 48.9232 200.664 50.0489 201.162C53.1074 202.697 56.4825 203.497 59.9049 203.497C63.3274 203.497 66.7026 202.697 69.7611 201.162C70.8868 200.664 71.8594 199.875 72.5785 198.876C73.2975 197.877 73.7371 196.704 73.8517 195.479V98.7849C74.2291 93.9448 75.685 89.2506 78.1125 85.0464C80.5401 80.8422 83.8777 77.2345 87.8808 74.4879L166.757 28.8316V125.608C166.874 126.836 167.318 128.011 168.042 129.01C168.766 130.009 169.744 130.797 170.875 131.291C173.926 132.835 177.298 133.639 180.717 133.639C184.137 133.639 187.508 132.835 190.56 131.291C191.685 130.793 192.658 130.004 193.377 129.005C194.096 128.006 194.535 126.833 194.65 125.608V28.8316C194.705 17.4381 189.928 8.07625 181.582 3.27177Z" fill="#37474F"/>
<path d="M166.758 28.8317V125.525C166.876 126.754 167.319 127.929 168.043 128.928C168.767 129.927 169.746 130.714 170.876 131.208C172.158 131.935 173.535 132.48 174.967 132.828V24.1096L166.758 28.8317Z" fill="#263238"/>
</svg>
