<svg width="330" height="343" viewBox="0 0 330 343" fill="none" xmlns="http://www.w3.org/2000/svg">
<path d="M177.2 324.661V316.382H152.791V324.661C152.793 327.365 151.882 329.991 150.204 332.111L149.13 333.469H180.861L179.796 332.111C178.112 329.994 177.197 327.367 177.2 324.661Z" fill="white" stroke="#37474F" stroke-linecap="round" stroke-linejoin="round"/>
<g style="mix-blend-mode:multiply">
<path d="M176.7 316.882V324.661C176.698 326.5 177.104 328.314 177.885 329.972H152.112C152.832 328.432 153.232 326.76 153.285 325.057L153.292 324.661V316.882H176.7Z" fill="#131E91"/>
<path d="M176.7 316.882V324.661C176.698 326.5 177.104 328.314 177.885 329.972H152.112C152.832 328.432 153.232 326.76 153.285 325.057L153.292 324.661V316.882H176.7Z" stroke="#37474F"/>
</g>
<path d="M177.2 317.63H152.791V321.127H177.2V317.63Z" fill="#263238" stroke="#37474F" stroke-width="1.09543" stroke-linecap="round" stroke-linejoin="round"/>
<path d="M205.58 245.423H124.411C119.738 245.423 115.95 249.211 115.95 253.884V310.535C115.95 315.208 119.738 318.996 124.411 318.996H205.58C210.253 318.996 214.041 315.208 214.041 310.535V253.884C214.041 249.211 210.253 245.423 205.58 245.423Z" fill="#263238" stroke="#37474F" stroke-width="1.09543" stroke-linecap="round" stroke-linejoin="round"/>
<path d="M115.95 307.557H214.041V310.571C214.041 311.683 213.822 312.783 213.397 313.809C212.972 314.836 212.348 315.769 211.563 316.554C210.777 317.34 209.844 317.963 208.818 318.389C207.791 318.814 206.691 319.033 205.58 319.033H124.411C123.3 319.033 122.199 318.814 121.173 318.389C120.146 317.963 119.214 317.34 118.428 316.554C117.642 315.769 117.019 314.836 116.594 313.809C116.169 312.783 115.95 311.683 115.95 310.571V307.602V307.557Z" fill="white" stroke="#37474F" stroke-linecap="round" stroke-linejoin="round"/>
<path d="M209.114 249.995H120.886V301.974H209.114V249.995Z" fill="#131E91" stroke="#37474F" stroke-width="1.09543" stroke-linecap="round" stroke-linejoin="round"/>
<path d="M166.808 313.304C166.808 312.944 166.701 312.591 166.501 312.292C166.301 311.992 166.016 311.759 165.683 311.621C165.351 311.483 164.984 311.447 164.631 311.517C164.278 311.588 163.953 311.761 163.698 312.016C163.444 312.271 163.27 312.595 163.2 312.948C163.13 313.302 163.166 313.668 163.303 314.001C163.441 314.334 163.675 314.618 163.974 314.818C164.274 315.019 164.626 315.125 164.986 315.125C165.469 315.125 165.933 314.933 166.274 314.592C166.616 314.25 166.808 313.787 166.808 313.304Z" fill="#263238" stroke="#37474F" stroke-width="1.09543" stroke-linecap="round" stroke-linejoin="round"/>
<path d="M180.861 333.469H149.13V334.944H180.861V333.469Z" fill="white" stroke="#37474F" stroke-linecap="round" stroke-linejoin="round"/>
<path d="M153.811 249.176C153.811 249.176 149.521 247.982 146.415 250.369C143.31 252.755 143.082 258.948 144.986 262.054C146.889 265.16 149.539 267.054 146.179 269.204C142.818 271.353 140.459 272.783 140.933 276.59C141.406 280.397 144.986 285.416 150.705 285.652C156.425 285.889 163.347 280.889 163.347 275.406C163.347 269.923 159.294 266.344 160.724 263.247C162.154 260.151 166.444 256.088 163.11 251.799C159.777 247.509 153.811 249.176 153.811 249.176Z" fill="#263238" stroke="#37474F" stroke-linecap="round" stroke-linejoin="round"/>
<path d="M195.816 301.181L186.126 280.57H142.372L134.175 301.181H195.816Z" fill="white" stroke="#37474F" stroke-linecap="round" stroke-linejoin="round"/>
<path d="M179.477 301.181L186.126 280.57L164.167 268.612L142.372 280.57L147.545 301.181H179.477Z" fill="white" stroke="#37474F" stroke-linecap="round" stroke-linejoin="round"/>
<path d="M160.405 270.67L154.166 274.14C153.019 277.246 151.99 282.009 155.077 284.742C156.99 286.472 164.367 280.935 164.367 280.935C164.367 280.935 169.613 286.654 173.903 284.742C176.945 283.394 175.561 277.993 173.73 273.812L166.926 270.115L160.405 270.67Z" fill="white" stroke="#37474F" stroke-linecap="round" stroke-linejoin="round"/>
<path d="M158.156 263.029V272.136L160.478 278.913C160.711 279.599 161.154 280.194 161.744 280.614C162.335 281.034 163.043 281.257 163.767 281.251C164.492 281.245 165.196 281.01 165.78 280.58C166.363 280.151 166.796 279.548 167.017 278.858L169.249 272V262.5L158.156 263.029Z" fill="white" stroke="#37474F" stroke-linecap="round" stroke-linejoin="round"/>
<path d="M155.76 252.746C155.76 252.746 153.456 248.657 152.181 250.924C150.906 253.192 152.691 258.074 153.456 259.349C154.221 260.624 155.505 258.584 155.505 258.584" fill="white"/>
<path d="M155.76 252.746C155.76 252.746 153.456 248.657 152.181 250.924C150.906 253.192 152.691 258.074 153.456 259.349C154.221 260.624 155.505 258.584 155.505 258.584" stroke="#37474F" stroke-linecap="round" stroke-linejoin="round"/>
<path d="M172.209 252.746C172.209 252.746 174.513 248.657 175.788 250.924C177.063 253.192 175.278 258.074 174.513 259.349C173.748 260.624 172.464 258.584 172.464 258.584" fill="white"/>
<path d="M172.209 252.746C172.209 252.746 174.513 248.657 175.788 250.924C177.063 253.192 175.278 258.074 174.513 259.349C173.748 260.624 172.464 258.584 172.464 258.584" stroke="#37474F" stroke-linecap="round" stroke-linejoin="round"/>
<path d="M173.365 251.981C173.365 259.167 169.139 269.076 163.921 269.076C158.702 269.076 154.476 259.167 154.476 251.981C154.476 244.795 158.711 238.957 163.921 238.957C169.13 238.957 173.365 244.786 173.365 251.981Z" fill="white" stroke="#37474F" stroke-linecap="round" stroke-linejoin="round"/>
<path d="M160.268 246.316C160.268 246.316 162.181 242.026 165.278 246.316C168.374 250.606 166.944 253.711 169.568 254.659C170.24 254.956 170.998 254.999 171.7 254.78C172.402 254.56 173 254.093 173.384 253.465C173.384 253.465 180.779 248.465 173.384 240.359C171.94 238.791 170.163 237.568 168.183 236.78C166.202 235.991 164.07 235.658 161.944 235.805C158.128 236.051 157.655 240.815 157.655 240.815C157.655 240.815 154.786 240.104 153.602 243.438C152.418 246.771 154.786 256.07 154.786 253.693C154.786 251.316 157.891 243.93 160.268 246.316Z" fill="#263238" stroke="#37474F" stroke-linecap="round" stroke-linejoin="round"/>
<path d="M292.159 208.837V200.549H267.75V208.837C267.752 211.542 266.837 214.169 265.154 216.287L264.089 217.672H295.82L294.746 216.324C293.062 214.192 292.15 211.553 292.159 208.837Z" fill="white" stroke="#37474F" stroke-linecap="round" stroke-linejoin="round"/>
<g style="mix-blend-mode:multiply">
<path d="M291.659 201.049V208.837L291.665 209.233C291.719 210.932 292.119 212.601 292.838 214.139H267.064C267.844 212.484 268.251 210.674 268.25 208.837V201.049H291.659Z" fill="#131E91"/>
<path d="M291.659 201.049V208.837L291.665 209.233C291.719 210.932 292.119 212.601 292.838 214.139H267.064C267.844 212.484 268.251 210.674 268.25 208.837V201.049H291.659Z" stroke="#37474F"/>
</g>
<path d="M292.159 201.797H267.75V205.294H292.159V201.797Z" fill="#263238" stroke="#37474F" stroke-width="1.09543" stroke-linecap="round" stroke-linejoin="round"/>
<path d="M320.539 129.59H239.37C234.697 129.59 230.909 133.378 230.909 138.051V194.702C230.909 199.375 234.697 203.163 239.37 203.163H320.539C325.212 203.163 329 199.375 329 194.702V138.051C329 133.378 325.212 129.59 320.539 129.59Z" fill="#263238" stroke="#37474F" stroke-width="1.09543" stroke-linecap="round" stroke-linejoin="round"/>
<path d="M230.909 191.723H329V194.693C329 195.804 328.781 196.904 328.356 197.931C327.931 198.957 327.307 199.89 326.522 200.676C325.736 201.461 324.803 202.085 323.777 202.51C322.75 202.935 321.65 203.154 320.539 203.154H239.37C238.259 203.154 237.158 202.935 236.132 202.51C235.105 202.085 234.173 201.461 233.387 200.676C232.601 199.89 231.978 198.957 231.553 197.931C231.128 196.904 230.909 195.804 230.909 194.693V191.723Z" fill="white" stroke="#37474F" stroke-linecap="round" stroke-linejoin="round"/>
<path d="M324.063 134.171H235.836V186.15H324.063V134.171Z" fill="#131E91" stroke="#37474F" stroke-width="1.09543" stroke-linecap="round" stroke-linejoin="round"/>
<path d="M281.758 197.443C281.758 197.083 281.651 196.731 281.451 196.431C281.25 196.132 280.966 195.898 280.633 195.76C280.3 195.622 279.934 195.586 279.581 195.657C279.227 195.727 278.903 195.9 278.648 196.155C278.393 196.41 278.22 196.734 278.15 197.088C278.079 197.441 278.115 197.807 278.253 198.14C278.391 198.473 278.625 198.758 278.924 198.958C279.224 199.158 279.576 199.265 279.936 199.265C280.419 199.265 280.883 199.073 281.224 198.731C281.566 198.39 281.758 197.926 281.758 197.443Z" fill="#263238" stroke="#37474F" stroke-width="1.09543" stroke-linecap="round" stroke-linejoin="round"/>
<path d="M295.82 217.635H264.089V219.111H295.82V217.635Z" fill="white" stroke="#37474F" stroke-linecap="round" stroke-linejoin="round"/>
<path d="M310.602 185.776L301.075 165.52H257.321L249.279 185.776H310.602Z" fill="white" stroke="#37474F" stroke-linecap="round" stroke-linejoin="round"/>
<path d="M301.075 185.776V165.52L284.135 155.802L279.116 153.562L273.469 155.802L257.321 165.52V185.776H301.075Z" fill="white" stroke="#37474F" stroke-linecap="round" stroke-linejoin="round"/>
<path d="M275.173 168.489L278.16 173.189L276.666 185.567H282.003L279.444 173.189L282.86 168.28L278.379 163.152L275.173 168.489Z" fill="#263238" stroke="#37474F" stroke-linecap="round" stroke-linejoin="round"/>
<path d="M278.789 167.205L274.107 170.839L270.692 157.815L273.47 155.802H284.135L286.485 157.396L284.563 171.049L278.789 167.205Z" fill="white" stroke="#37474F" stroke-linecap="round" stroke-linejoin="round"/>
<path d="M273.105 147.979V157.096L278.788 167.205L284.208 156.968V147.45L273.105 147.979Z" fill="white" stroke="#37474F" stroke-linecap="round" stroke-linejoin="round"/>
<path d="M270.71 137.696C270.71 137.696 268.415 133.606 267.14 135.874C265.865 138.142 267.65 143.015 268.415 144.299C269.18 145.583 270.455 143.534 270.455 143.534" fill="white"/>
<path d="M270.71 137.696C270.71 137.696 268.415 133.606 267.14 135.874C265.865 138.142 267.65 143.015 268.415 144.299C269.18 145.583 270.455 143.534 270.455 143.534" stroke="#37474F" stroke-linecap="round" stroke-linejoin="round"/>
<path d="M287.168 137.696C287.168 137.696 289.463 133.606 290.738 135.874C292.013 138.142 290.228 143.015 289.463 144.299C288.698 145.583 287.423 143.534 287.423 143.534" fill="white"/>
<path d="M287.168 137.696C287.168 137.696 289.463 133.606 290.738 135.874C292.013 138.142 290.228 143.015 289.463 144.299C288.698 145.583 287.423 143.534 287.423 143.534" stroke="#37474F" stroke-linecap="round" stroke-linejoin="round"/>
<path d="M288.324 136.931C288.324 144.117 284.098 154.035 278.88 154.035C273.661 154.035 269.48 144.117 269.48 136.931C269.48 129.745 273.706 123.907 278.925 123.907C284.144 123.907 288.324 129.736 288.324 136.931Z" fill="white" stroke="#37474F" stroke-linecap="round" stroke-linejoin="round"/>
<path d="M267.495 175.958L274.216 185.776H283.734L290.756 178.517L286.275 172.97L291.822 172.542L291.184 160.165L286.485 157.396L278.588 185.567L270.692 157.815L266.848 160.165L265.354 171.267L270.054 172.114L267.495 175.958Z" fill="white" stroke="#37474F" stroke-linecap="round" stroke-linejoin="round"/>
<path d="M269.416 138.825C269.416 138.825 271.529 139.098 271.12 138.397C270.71 137.696 271.12 135.2 271.12 135.2C271.606 134.811 271.975 134.294 272.185 133.707C272.613 132.641 271.548 131.138 271.548 129.863C271.548 128.588 278.16 131.138 279.226 131.138C280.291 131.138 286.275 129.645 286.275 129.645C286.275 129.645 285.2 133.488 285.847 133.916C286.494 134.344 286.913 136.266 286.913 136.266C286.913 136.266 286.275 139.681 286.485 140.319C286.694 140.956 287.978 141.385 288.197 140.747C288.415 140.109 288.406 134.554 288.406 134.554C288.406 134.554 289.9 134.772 289.9 131.821C289.9 128.87 288.197 122.213 285.2 120.937C282.204 119.662 275.391 119.653 272.613 121.147C269.835 122.641 267.914 129.472 268.56 131.821C269.029 134.13 269.315 136.472 269.416 138.825Z" fill="#263238" stroke="#37474F" stroke-linecap="round" stroke-linejoin="round"/>
<path d="M177.2 95.809V87.5209H152.791V95.809C152.791 98.5099 151.88 101.132 150.204 103.25L149.13 104.607H180.861L179.796 103.25C178.114 101.135 177.199 98.5115 177.2 95.809Z" fill="white" stroke="#37474F" stroke-linecap="round" stroke-linejoin="round"/>
<g style="mix-blend-mode:multiply">
<path d="M176.7 88.0209V95.809L176.707 96.2045C176.76 97.9049 177.161 99.5746 177.885 101.111H152.112C152.887 99.4541 153.292 97.6447 153.292 95.809V88.0209H176.7Z" fill="#131E91"/>
<path d="M176.7 88.0209V95.809L176.707 96.2045C176.76 97.9049 177.161 99.5746 177.885 101.111H152.112C152.887 99.4541 153.292 97.6447 153.292 95.809V88.0209H176.7Z" stroke="#37474F"/>
</g>
<path d="M177.2 88.7687H152.791V92.2661H177.2V88.7687Z" fill="#263238" stroke="#37474F" stroke-width="1.09543" stroke-linecap="round" stroke-linejoin="round"/>
<path d="M205.58 16.5619H124.411C119.738 16.5619 115.95 20.3501 115.95 25.023V81.6737C115.95 86.3466 119.738 90.1348 124.411 90.1348H205.58C210.253 90.1348 214.041 86.3466 214.041 81.6737V25.023C214.041 20.3501 210.253 16.5619 205.58 16.5619Z" fill="#263238" stroke="#37474F" stroke-width="1.09543" stroke-linecap="round" stroke-linejoin="round"/>
<path d="M115.95 78.6954H214.041V81.6646C214.041 83.9086 213.15 86.0608 211.563 87.6475C209.976 89.2343 207.824 90.1257 205.58 90.1257H124.411C122.167 90.1257 120.015 89.2343 118.428 87.6475C116.841 86.0608 115.95 83.9086 115.95 81.6646V78.6954Z" fill="white" stroke="#37474F" stroke-linecap="round" stroke-linejoin="round"/>
<path d="M209.114 21.134H120.886V73.1123H209.114V21.134Z" fill="#131E91" stroke="#37474F" stroke-width="1.09543" stroke-linecap="round" stroke-linejoin="round"/>
<path d="M164.995 86.2276C165.996 86.2276 166.808 85.4161 166.808 84.4151C166.808 83.4141 165.996 82.6027 164.995 82.6027C163.994 82.6027 163.183 83.4141 163.183 84.4151C163.183 85.4161 163.994 86.2276 164.995 86.2276Z" fill="#263238" stroke="#37474F" stroke-width="1.09543" stroke-linecap="round" stroke-linejoin="round"/>
<path d="M180.861 104.607H149.13V106.083H180.861V104.607Z" fill="white" stroke="#37474F" stroke-linecap="round" stroke-linejoin="round"/>
<path d="M195.816 72.8846L186.126 52.2736H142.372L134.175 72.8846H195.816Z" fill="white" stroke="#37474F" stroke-linecap="round" stroke-linejoin="round"/>
<path d="M149.521 26.4894C149.521 26.4894 147.945 33.8394 149.521 36.8359C151.097 39.8323 153.319 43.4208 152.117 46.0166C150.915 48.6123 149.721 49.2043 149.321 54.2136C148.92 59.2229 156.908 69.1777 166.088 68.1759C175.269 67.174 180.661 59.5963 179.058 53.4121C177.455 47.2279 174.868 46.4264 175.661 42.4827C176.453 38.539 178.457 35.8978 177.482 30.515C176.508 25.1323 171.699 16.3433 165.915 14.3487C160.132 12.354 156.489 15.1502 154.339 18.9026C152.19 22.655 149.904 24.9319 149.521 26.4894Z" fill="#263238" stroke="#37474F" stroke-linecap="round" stroke-linejoin="round"/>
<path d="M179.477 72.8846L186.126 52.2736L164.167 40.3151L142.372 52.2736L147.545 72.8846H179.477Z" fill="white" stroke="#37474F" stroke-linecap="round" stroke-linejoin="round"/>
<path d="M155.605 45.0147L153.328 52.0004L158.52 53.3939L153.929 56.7911L163.511 66.1631L172.491 57.7839L168.101 53.5943L174.285 52.0004L172.664 44.9509L164.167 40.3151L155.605 45.0147Z" fill="white" stroke="#37474F" stroke-linecap="round" stroke-linejoin="round"/>
<path d="M158.156 34.732V43.8489L163.83 60.3796L169.249 43.7123V34.2037L158.156 34.732Z" fill="white" stroke="#37474F" stroke-linecap="round" stroke-linejoin="round"/>
<path d="M155.76 24.4492C155.76 24.4492 153.456 20.3598 152.181 22.6277C150.906 24.8955 152.691 29.7682 153.456 31.0524C154.221 32.3366 155.505 30.2782 155.505 30.2782" fill="white"/>
<path d="M155.76 24.4492C155.76 24.4492 153.456 20.3598 152.181 22.6277C150.906 24.8955 152.691 29.7682 153.456 31.0524C154.221 32.3366 155.505 30.2782 155.505 30.2782" stroke="#37474F" stroke-linecap="round" stroke-linejoin="round"/>
<path d="M172.209 24.4492C172.209 24.4492 174.513 20.3598 175.788 22.6277C177.063 24.8955 175.278 29.7682 174.513 31.0524C173.748 32.3366 172.464 30.2782 172.464 30.2782" fill="white"/>
<path d="M172.209 24.4492C172.209 24.4492 174.513 20.3598 175.788 22.6277C177.063 24.8955 175.278 29.7682 174.513 31.0524C173.748 32.3366 172.464 30.2782 172.464 30.2782" stroke="#37474F" stroke-linecap="round" stroke-linejoin="round"/>
<path d="M173.365 23.6751C173.365 30.8611 169.139 40.7796 163.921 40.7796C158.702 40.7796 154.476 30.8702 154.476 23.6751C154.476 16.4799 158.711 10.6509 163.921 10.6509C169.13 10.6509 173.365 16.489 173.365 23.6751Z" fill="white" stroke="#37474F" stroke-linecap="round" stroke-linejoin="round"/>
<path d="M162.108 14.2849C162.108 12.1719 161.471 9.33025 158.538 10.3139C155.086 11.4888 152.809 18.8661 151.143 21.8717C150.288 23.282 149.736 24.8545 149.521 26.4894C148.702 31.5898 152.937 35.834 152.937 35.834C152.937 35.834 151.935 30.4513 152.536 26.8537C152.873 24.85 153.884 24.1214 155.651 23.4018C159.695 21.8535 162.108 18.8661 162.108 14.2849Z" fill="#263238" stroke="#37474F" stroke-linecap="round" stroke-linejoin="round"/>
<path d="M180.424 24.3126C179.135 22.1434 177.533 20.1762 175.67 18.4745C173.475 16.2795 172.282 10.8968 167.291 9.09344C162.3 7.29009 160.105 9.69456 160.305 13.2921C160.336 13.8675 160.409 14.4398 160.524 15.0044C160.519 15.0316 160.519 15.0592 160.524 15.0864C160.524 15.0864 160.524 15.1775 160.615 15.3505C160.763 16.3126 161.224 17.1991 161.926 17.8734L162.054 17.9645C163.076 19.439 164.235 20.8143 165.515 22.0721C169.704 26.2617 174.896 30.0505 175.096 34.4405C175.251 38.029 173.967 40.816 173.275 44.4591H173.102C172.706 46.4081 171.892 48.2479 170.715 49.8509C168.894 52.0459 168.712 53.6398 172.91 53.8402C178.521 54.1043 181.317 46.6632 182.091 42.1457C182.859 37.9664 182.89 33.6849 182.182 29.495C181.875 27.6852 181.281 25.9359 180.424 24.3126Z" fill="#263238" stroke="#37474F" stroke-linecap="round" stroke-linejoin="round"/>
<path d="M62.2502 208.837V200.549H37.8413V208.837C37.8387 211.542 36.9242 214.167 35.2455 216.287L34.1799 217.672H65.9025L64.8369 216.324C63.1531 214.192 62.2413 211.553 62.2502 208.837Z" fill="white" stroke="#37474F" stroke-linecap="round" stroke-linejoin="round"/>
<g style="mix-blend-mode:multiply">
<path d="M61.7322 201.049V208.837L61.738 209.233C61.7917 210.932 62.1917 212.601 62.9109 214.139H37.1365C37.9136 212.483 38.3201 210.674 38.323 208.838V201.049H61.7322Z" fill="#131E91"/>
<path d="M61.7322 201.049V208.837L61.738 209.233C61.7917 210.932 62.1917 212.601 62.9109 214.139H37.1365C37.9136 212.483 38.3201 210.674 38.323 208.838V201.049H61.7322Z" stroke="#37474F"/>
</g>
<path d="M62.25 201.797H37.8411V205.294H62.25V201.797Z" fill="#263238" stroke="#37474F" stroke-width="1.09543" stroke-linecap="round" stroke-linejoin="round"/>
<path d="M90.6301 129.59H9.46117C4.78819 129.59 1 133.378 1 138.051V194.702C1 199.375 4.78819 203.163 9.46117 203.163H90.6301C95.3031 203.163 99.0912 199.375 99.0912 194.702V138.051C99.0912 133.378 95.3031 129.59 90.6301 129.59Z" fill="#263238" stroke="#37474F" stroke-width="1.09543" stroke-linecap="round" stroke-linejoin="round"/>
<path d="M1 191.724H99.0912V194.693C99.0912 195.804 98.8724 196.904 98.4472 197.931C98.022 198.957 97.3987 199.89 96.613 200.676C95.8273 201.461 94.8946 202.085 93.868 202.51C92.8415 202.935 91.7412 203.154 90.6301 203.154H9.46117C8.35003 203.154 7.24977 202.935 6.22322 202.51C5.19666 202.085 4.26391 201.461 3.47822 200.676C2.69253 199.89 2.06928 198.957 1.64407 197.931C1.21886 196.904 1 195.804 1 194.693V191.724Z" fill="white" stroke="#37474F" stroke-linecap="round" stroke-linejoin="round"/>
<path d="M94.1547 134.171H5.92725V186.15H94.1547V134.171Z" fill="#131E91" stroke="#37474F" stroke-width="1.09543" stroke-linecap="round" stroke-linejoin="round"/>
<path d="M51.8489 197.443C51.8489 197.083 51.7421 196.731 51.5419 196.431C51.3418 196.132 51.0573 195.898 50.7245 195.76C50.3916 195.622 50.0254 195.586 49.672 195.657C49.3187 195.727 48.9941 195.9 48.7393 196.155C48.4846 196.41 48.3111 196.734 48.2408 197.088C48.1705 197.441 48.2066 197.807 48.3445 198.14C48.4823 198.473 48.7158 198.758 49.0154 198.958C49.3149 199.158 49.6671 199.265 50.0274 199.265C50.5105 199.265 50.9738 199.073 51.3154 198.731C51.657 198.39 51.8489 197.926 51.8489 197.443Z" fill="#263238" stroke="#37474F" stroke-width="1.09543" stroke-linecap="round" stroke-linejoin="round"/>
<path d="M65.9116 217.635H34.1799V219.111H65.9116V217.635Z" fill="white" stroke="#37474F" stroke-linecap="round" stroke-linejoin="round"/>
<path d="M80.8575 185.922L71.1668 165.302H27.4128L19.2249 185.922H80.8575Z" fill="white" stroke="#37474F" stroke-linecap="round" stroke-linejoin="round"/>
<path d="M71.1666 185.922V165.302L56.9948 155.593L49.2076 153.343L41.4204 155.593L27.4126 165.302V185.922H71.1666Z" fill="white" stroke="#37474F" stroke-linecap="round" stroke-linejoin="round"/>
<path d="M44.5171 151.54C44.5171 151.54 41.4023 152.451 40.7738 153.097C40.1454 153.744 39.6809 156.995 39.0616 158.708C38.4422 160.42 36.4112 163.38 37.0396 163.535C37.6681 163.69 42.9597 161.039 42.9597 161.039L49.0346 167.925L54.7999 160.73C54.7999 160.73 59.3538 164.163 59.627 163.69C59.9002 163.216 57.6051 157.615 57.4502 155.274C57.2954 152.933 53.8618 152.159 51.8398 152.004C49.8179 151.849 44.5171 151.54 44.5171 151.54Z" fill="white" stroke="#37474F" stroke-linecap="round" stroke-linejoin="round"/>
<path d="M43.1965 147.769V156.877L48.8798 167.342L54.299 156.749V147.232L43.1965 147.769Z" fill="white" stroke="#37474F" stroke-linecap="round" stroke-linejoin="round"/>
<path d="M40.8012 137.523C40.8012 137.523 38.506 133.443 37.231 135.701C35.9559 137.96 37.741 142.851 38.506 144.126C39.2711 145.401 40.5462 143.361 40.5462 143.361" fill="white"/>
<path d="M40.8012 137.523C40.8012 137.523 38.506 133.443 37.231 135.701C35.9559 137.96 37.741 142.851 38.506 144.126C39.2711 145.401 40.5462 143.361 40.5462 143.361" stroke="#37474F" stroke-linecap="round" stroke-linejoin="round"/>
<path d="M57.2681 137.523C57.2681 137.523 59.5632 133.443 60.8383 135.701C62.1134 137.96 60.3283 142.851 59.5632 144.126C58.7982 145.401 57.5231 143.361 57.5231 143.361" fill="white"/>
<path d="M57.2681 137.523C57.2681 137.523 59.5632 133.443 60.8383 135.701C62.1134 137.96 60.3283 142.851 59.5632 144.126C58.7982 145.401 57.5231 143.361 57.5231 143.361" stroke="#37474F" stroke-linecap="round" stroke-linejoin="round"/>
<path d="M58.4157 136.712C58.4157 143.898 54.1897 153.817 48.9709 153.817C43.7522 153.817 39.5261 143.898 39.5261 136.712C39.5261 129.526 43.7522 123.697 48.9709 123.697C54.1897 123.697 58.4157 129.526 58.4157 136.712Z" fill="white" stroke="#37474F" stroke-linecap="round" stroke-linejoin="round"/>
<path d="M56.4119 133.106C56.4119 133.106 55.7471 134.927 56.5394 135.747C57.3318 136.567 57.2043 137.723 57.0677 139.308C56.9311 140.893 57.3318 141.822 57.8601 141.293C58.3883 140.765 58.9166 133.37 58.9166 132.841C58.9166 132.313 56.4119 133.106 56.4119 133.106Z" fill="#263238" stroke="#37474F" stroke-linecap="round" stroke-linejoin="round"/>
<path d="M39.6353 135.61L39.8995 139.709C40.0034 139.746 40.1137 139.761 40.2238 139.754C40.3339 139.748 40.4414 139.719 40.5401 139.669C40.6387 139.62 40.7264 139.551 40.7979 139.467C40.8693 139.383 40.9231 139.286 40.956 139.18C41.2201 138.388 40.5552 135.874 41.2201 134.554C41.885 133.233 44.3896 132.577 44.5171 131.648C44.6446 130.719 43.1965 129.007 43.1965 128.351C43.1965 127.695 43.5972 127.031 46.8943 130.173C50.1913 133.315 56.2753 133.998 59.4448 133.206C62.6144 132.413 58.7891 127.659 57.9967 126.603C57.2043 125.546 60.1097 126.338 58.525 123.697C56.9402 121.056 51.3844 119.335 45.8378 121.32C40.2911 123.306 37.1216 126.074 37.9139 128.852C38.7063 131.63 39.6353 135.61 39.6353 135.61Z" fill="#263238" stroke="#37474F" stroke-linecap="round" stroke-linejoin="round"/>
<path d="M165.369 202.972V231.579" stroke="#37474F" stroke-width="2" stroke-miterlimit="10"/>
<path d="M169.13 230.722L165.368 237.238L161.599 230.722H169.13Z" fill="#263238" stroke="#37474F"/>
<path d="M165.369 141.722V113.114" stroke="#37474F" stroke-width="2" stroke-miterlimit="10"/>
<path d="M169.13 113.971H161.6L165.368 107.454L169.13 113.971Z" fill="#263238" stroke="#37474F"/>
<path d="M134.749 172.351H106.141" stroke="#37474F" stroke-width="2" stroke-miterlimit="10"/>
<path d="M106.998 176.112L100.473 172.35L106.998 168.58V176.112Z" fill="#263238" stroke="#37474F"/>
<path d="M115.586 100.627L94.665 121.548" stroke="#37474F" stroke-width="2" stroke-miterlimit="10"/>
<path d="M117.639 103.895L112.314 98.5625L119.587 96.6162L117.639 103.895Z" fill="#263238" stroke="#37474F"/>
<path d="M97.9333 123.61L90.6531 125.558L92.6003 118.277L97.9333 123.61Z" fill="#263238" stroke="#37474F"/>
<path d="M216.591 100.627L237.512 121.548" stroke="#37474F" stroke-width="2" stroke-miterlimit="10"/>
<path d="M219.852 98.5713L214.527 103.897L212.581 96.6162L219.852 98.5713Z" fill="#263238" stroke="#37474F"/>
<path d="M241.513 125.558L234.242 123.61L239.566 118.279L241.513 125.558Z" fill="#263238" stroke="#37474F"/>
<path d="M115.586 240.068L94.665 219.147" stroke="#37474F" stroke-width="2" stroke-miterlimit="10"/>
<path d="M119.594 244.078L112.316 242.131L117.64 236.807L119.594 244.078Z" fill="#263238" stroke="#37474F"/>
<path d="M97.9333 217.092L92.6003 222.417L90.6541 215.144L97.9333 217.092Z" fill="#263238" stroke="#37474F"/>
<path d="M216.591 240.068L237.512 219.147" stroke="#37474F" stroke-width="2" stroke-miterlimit="10"/>
<path d="M219.851 242.131L212.581 244.078L214.527 236.807L219.851 242.131Z" fill="#263238" stroke="#37474F"/>
<path d="M239.566 222.415L234.242 217.092L241.513 215.145L239.566 222.415Z" fill="#263238" stroke="#37474F"/>
<path d="M195.99 172.351H224.597" stroke="#37474F" stroke-width="2" stroke-miterlimit="10"/>
<path d="M230.263 172.35L223.74 176.112V168.58L230.263 172.35Z" fill="#263238" stroke="#37474F"/>
<path d="M166.48 174.991C168.554 174.992 169.772 175.378 170.484 176.054C171.188 176.722 171.509 177.781 171.509 179.419C171.509 181.056 171.189 182.216 170.467 182.975C169.749 183.729 168.531 184.193 166.48 184.193H164.175V174.991H166.48Z" fill="#263238" stroke="#37474F"/>
<path d="M164.996 136.602C174.356 136.602 183.333 140.32 189.952 146.939C196.571 153.558 200.29 162.535 200.29 171.896C200.29 178.876 198.219 185.7 194.341 191.504C190.463 197.308 184.95 201.832 178.501 204.503C172.052 207.175 164.956 207.873 158.11 206.511C151.264 205.149 144.974 201.788 140.039 196.852C135.103 191.916 131.741 185.628 130.379 178.782C129.018 171.935 129.717 164.838 132.388 158.389C135.059 151.94 139.583 146.428 145.387 142.55C151.191 138.672 158.015 136.602 164.996 136.602ZM176.87 143.219C171.2 140.871 164.961 140.256 158.942 141.454C152.923 142.651 147.394 145.606 143.054 149.946C138.715 154.285 135.759 159.814 134.562 165.833C133.365 171.852 133.979 178.091 136.328 183.761C138.676 189.431 142.654 194.277 147.756 197.687C152.7 200.99 158.484 202.801 164.42 202.911L164.996 202.916C173.223 202.909 181.111 199.637 186.928 193.82C192.746 188.002 196.018 180.114 196.025 171.887V171.886C196.025 165.749 194.205 159.751 190.795 154.648C187.386 149.545 182.54 145.568 176.87 143.219Z" fill="#263238" stroke="#37474F"/>
<path d="M166.18 160.975C167.995 160.975 169.096 161.333 169.75 161.94C170.394 162.539 170.707 163.478 170.707 164.901C170.707 166.314 170.382 167.277 169.726 167.897C169.062 168.525 167.959 168.9 166.18 168.9H164.175V160.975H166.18Z" fill="#263238" stroke="#37474F"/>
<path d="M164.995 143.961C172.399 143.968 179.498 146.913 184.733 152.149C189.969 157.384 192.914 164.483 192.921 171.887L192.916 172.405C192.819 177.749 191.19 182.958 188.217 187.409C185.148 192.005 180.785 195.587 175.681 197.702C170.576 199.818 164.959 200.372 159.539 199.294C154.119 198.217 149.141 195.556 145.233 191.649C141.326 187.741 138.665 182.763 137.588 177.343C136.51 171.923 137.064 166.306 139.18 161.201C141.295 156.097 144.877 151.734 149.473 148.665C153.924 145.692 159.133 144.063 164.478 143.966L164.995 143.961ZM159.559 155.657H151.499V161.421H153.531C153.761 161.464 153.973 161.576 154.136 161.744C154.301 161.915 154.406 162.133 154.44 162.367V182.54C154.406 182.776 154.299 182.995 154.134 183.166C153.97 183.336 153.757 183.448 153.525 183.491H151.499V189.291H159.559V195.403H164.202V189.281H166.554V195.403H171.197V188.957C174.126 188.503 176.535 187.528 178.248 185.985C180.058 184.354 181.05 182.13 181.088 179.353V179.346C181.088 177.021 180.361 175.166 178.935 173.802C177.86 172.774 176.418 172.053 174.667 171.598C176.074 171.141 177.241 170.505 178.121 169.618C179.352 168.378 179.968 166.71 179.968 164.555C179.968 162.11 179.173 160.14 177.593 158.684C176.106 157.313 173.967 156.439 171.27 156.001V149.5H166.627V155.657H164.202V149.5H159.559V155.657Z" fill="#263238" stroke="#37474F"/>
</svg>
