<svg width="240" height="228" viewBox="0 0 240 228" fill="none" xmlns="http://www.w3.org/2000/svg">
<path d="M240 76.2096C236.355 66.2016 230.773 57.0091 223.573 49.1569C216.372 41.3047 207.695 34.9466 198.036 30.4456C188.376 25.9447 177.925 23.3889 167.277 22.9244C156.63 22.4598 145.995 24.0955 135.98 27.7381C125.965 31.3807 116.766 36.9589 108.908 44.1541C101.05 51.3493 94.6878 60.0206 90.1836 69.673C85.6795 79.3254 83.122 89.7699 82.6571 100.41C82.1922 111.05 83.8291 121.677 87.4742 131.685L163.737 103.948L240 76.2096Z" fill="#F0F0F0"/>
<path d="M80.1106 55.8809C101.6 49.2776 122.202 49.0678 141.35 55.2344L142.261 55.5332C158.229 60.8355 168.831 69.1328 173.915 73.1543L173.916 73.1553C175.117 74.1003 175.891 75.4805 176.069 76.9922C176.235 78.4092 175.864 79.8338 175.034 80.9902L174.863 81.2178C174.851 81.2324 174.839 81.2468 174.826 81.2617C173.849 82.4615 172.437 83.2319 170.894 83.4062C169.446 83.5697 167.993 83.197 166.809 82.3652L166.576 82.1924C157.313 74.9322 129.141 52.8357 83.5217 66.8535C40.3774 80.111 27.6535 110.588 24.0403 124.417L23.718 125.702L23.7161 125.71C23.4963 126.708 23.0112 127.628 22.3108 128.376C21.6103 129.124 20.7198 129.671 19.7336 129.959L19.7268 129.961C18.7495 130.265 17.7086 130.308 16.7092 130.085C15.7099 129.862 14.787 129.382 14.0344 128.691C13.282 128.001 12.7261 127.126 12.4221 126.154C12.1181 125.183 12.0773 124.148 12.303 123.155L12.302 123.154C15.9343 108.129 29.7456 71.3574 80.1106 55.8809Z" fill="#131E91" stroke="#111111" stroke-width="0.9"/>
<path d="M86.998 78.0566C104.697 72.6181 123.297 73.5307 140.808 80.6719V80.6729C153.964 86.0713 166.166 94.8962 174.458 105.004L175.248 105.986C185.836 119.399 189.537 136.924 184.743 150.553C181.553 159.622 174.963 165.855 166.216 168.085C154.73 170.991 146.794 168.78 140.908 164.554C135.73 160.836 132.107 155.538 129.056 150.651L127.78 148.588L126.539 146.587C123.707 142.073 121.278 138.641 118.339 136.637C114.922 134.306 110.882 133.937 104.922 135.769C98.5876 137.715 94.5157 140.829 92.6855 145.341L92.5156 145.782C91.341 149.004 91.3177 152.653 91.8555 156.179C92.3938 159.708 93.4987 163.148 94.6123 165.975C94.6353 166.033 94.6586 166.092 94.6816 166.15L94.6826 166.151C97.5441 173.351 102.009 179.812 107.742 185.047V185.048C116.88 193.442 133.897 205.461 155.619 204.302H155.623C157.151 204.207 158.654 204.721 159.802 205.729C160.949 206.736 161.646 208.156 161.741 209.674C161.742 209.689 161.743 209.705 161.744 209.721V209.722C161.791 211.011 161.409 212.281 160.658 213.334C159.907 214.387 158.828 215.164 157.587 215.546L157.56 215.554C157.101 215.699 156.625 215.788 156.145 215.816C136.521 216.868 120.457 209.286 109.155 201.254C97.9207 193.269 91.4202 184.857 90.8506 184.107L90.6748 183.818L90.668 183.808C90.3562 183.327 86.418 177.362 83.3916 169.248C80.359 161.117 78.2753 150.918 81.5674 141.929C84.5843 133.73 91.2586 127.946 101.555 124.782C111.125 121.841 118.886 122.725 125.482 127.41L125.483 127.411C130.238 130.767 133.508 135.573 136.556 140.492L137.853 142.604C141.408 148.412 144.333 152.9 148.107 155.477C151.81 158.004 156.271 158.659 162.78 157.125L163.417 156.97C169.58 155.414 172.443 150.617 173.737 146.94V146.939C177.22 136.942 174.124 123.399 166.034 113.186C155.612 99.9722 126.443 78.0047 90.4219 89.0732C75.29 93.723 62.8533 102.819 54.4248 115.34L54.0264 115.938C47.0445 126.58 42.9846 139.793 42.8955 152.126V152.127C42.8253 163.628 47.5216 176.899 52.2275 187.293C56.8865 197.583 61.5855 205.116 61.7861 205.43V205.431C62.187 206.069 62.458 206.779 62.583 207.521C62.7079 208.262 62.6845 209.021 62.5146 209.754C62.3448 210.487 62.0318 211.179 61.5928 211.792C61.1537 212.405 60.5967 212.925 59.9551 213.324V213.325C59.9376 213.336 59.92 213.347 59.9023 213.357L59.8984 213.359C58.5813 214.177 56.9929 214.446 55.4775 214.108C53.9624 213.771 52.6416 212.854 51.8008 211.558C51.3429 210.818 46.1514 202.522 41.085 191.137C36.1517 180.051 31.3604 166.087 31.1387 153.337L31.1318 152.107C31.3556 123.711 48.704 89.8238 86.998 78.0566Z" fill="#131E91" stroke="#111111" stroke-width="0.9"/>
<path d="M94.0835 100.872C113.009 95.0569 130.63 99.1742 145.196 112.736L145.887 113.389C152.579 119.896 158.021 127.563 161.948 136.012H161.949C162.533 137.432 162.532 139.025 161.946 140.444C161.359 141.864 160.234 142.999 158.813 143.601C157.392 144.202 155.788 144.223 154.351 143.659C153.004 143.13 151.905 142.127 151.258 140.847L151.135 140.587L151.131 140.577L150.812 139.909C147.579 133.246 143.225 127.181 137.938 121.977L137.406 121.459L137.403 121.457L136.861 120.95C125.449 110.442 112.195 107.375 97.4644 111.901C84.5803 115.86 75.6493 122.881 71.0728 132.804C64.4919 147.045 67.888 164.768 72.7739 175.645L72.7778 175.653C81.3674 193.761 93.2397 206.7 110.049 216.35L110.854 216.807C111.511 217.175 112.089 217.669 112.554 218.26C112.961 218.776 113.275 219.358 113.483 219.979L113.565 220.248C113.767 220.97 113.825 221.725 113.734 222.47C113.643 223.214 113.406 223.933 113.036 224.586C113.021 224.611 113.007 224.637 112.992 224.662C112.296 225.837 111.212 226.733 109.928 227.199L109.669 227.286C108.904 227.522 108.098 227.6 107.301 227.518C106.504 227.435 105.732 227.192 105.032 226.804H105.031C85.6355 215.872 72.0231 201.177 62.2114 180.568L62.1812 180.472L62.1733 180.446L62.1616 180.421C55.9829 166.683 52.2875 145.734 60.4575 128.068C66.4808 115.051 77.792 105.878 94.0835 100.872Z" fill="#131E91" stroke="#111111" stroke-width="0.9"/>
<path d="M110.679 165.815C115.131 165.815 118.74 162.225 118.74 157.796C118.74 153.367 115.131 149.777 110.679 149.777C106.226 149.777 102.617 153.367 102.617 157.796C102.617 162.225 106.226 165.815 110.679 165.815Z" fill="#CFCFCF"/>
<path d="M27.3119 55.3739C29.8577 55.3719 32.3686 55.9656 34.6435 57.1076C36.9185 58.2495 38.8942 59.908 40.4125 61.9501L49.821 49.6571L21.591 28.0811L0 56.2913L12.167 65.5905C13.3846 62.5729 15.4771 59.9879 18.1757 58.1674C20.8743 56.3469 24.0559 55.3741 27.3119 55.3739Z" fill="#F0F0F0"/>
<path d="M192.849 182.833H163.115V205.906H192.849V182.833Z" fill="#131E91"/>
<path d="M195.823 204.093H167.278C166.962 204.093 166.66 203.954 166.437 203.707C166.214 203.46 166.088 203.125 166.088 202.775V181.02C166.088 180.671 166.214 180.335 166.437 180.088C166.66 179.841 166.962 179.702 167.278 179.702H195.823C196.138 179.702 196.44 179.841 196.663 180.088C196.886 180.335 197.012 180.671 197.012 181.02V202.775C197.012 203.125 196.886 203.46 196.663 203.707C196.44 203.954 196.138 204.093 195.823 204.093ZM167.278 181.02V202.775H195.824L195.823 181.02H167.278Z" fill="#3F3D56"/>
<path d="M192.552 180.195H191.363C191.363 177.311 190.329 174.544 188.489 172.504C186.648 170.464 184.153 169.318 181.55 169.318C178.948 169.318 176.452 170.464 174.612 172.504C172.772 174.544 171.738 177.311 171.738 180.195H170.548C170.548 176.961 171.707 173.859 173.771 171.572C175.834 169.284 178.632 168 181.55 168C184.468 168 187.266 169.284 189.33 171.572C191.393 173.859 192.552 176.961 192.552 180.195Z" fill="#3F3D56"/>
<path d="M184.524 189.26C184.524 188.686 184.389 188.122 184.133 187.623C183.876 187.125 183.507 186.709 183.061 186.417C182.615 186.126 182.108 185.968 181.59 185.96C181.073 185.952 180.562 186.095 180.109 186.373C179.656 186.651 179.277 187.055 179.008 187.546C178.739 188.037 178.591 188.597 178.577 189.171C178.564 189.744 178.686 190.312 178.931 190.818C179.176 191.323 179.537 191.749 179.976 192.053V195.591C179.976 195.82 180.017 196.047 180.096 196.258C180.175 196.47 180.291 196.663 180.437 196.825C180.583 196.987 180.757 197.115 180.948 197.203C181.139 197.291 181.343 197.336 181.55 197.336C181.968 197.336 182.368 197.152 182.663 196.825C182.958 196.497 183.124 196.053 183.124 195.591V192.053C183.552 191.757 183.905 191.346 184.15 190.857C184.395 190.369 184.523 189.819 184.524 189.26Z" fill="#3F3D56"/>
<rect width="17.5576" height="17.5576" transform="matrix(0.707355 -0.706859 0.707355 0.706859 17.5637 199.625)" fill="#F0F0F0"/>
</svg>
