<svg width="316" height="198" viewBox="0 0 316 198" fill="none" xmlns="http://www.w3.org/2000/svg">
<path d="M133.303 27.6075C135.883 27.6055 138.428 28.2061 140.734 29.3612C143.039 30.5164 145.042 32.1939 146.581 34.2595L156.116 21.8248L127.504 0L105.621 28.5355L117.953 37.942C119.187 34.8896 121.308 32.2747 124.043 30.4333C126.778 28.5918 130.003 27.6078 133.303 27.6075Z" fill="#F0F0F0"/>
<path d="M267.422 133.745H314.341C316.303 141.181 316.528 148.966 314.999 156.502C313.471 164.038 310.229 171.123 305.524 177.214C300.819 183.304 294.775 188.237 287.859 191.632C280.942 195.028 273.337 196.796 265.628 196.8C264.252 196.8 262.89 196.745 261.543 196.634V169.047C261.544 167.724 261.219 166.421 260.596 165.254C259.973 164.086 259.072 163.089 257.971 162.351C256.87 161.613 255.605 161.156 254.285 161.022C252.966 160.887 251.634 161.078 250.406 161.578V150.722C250.405 148.493 250.844 146.286 251.699 144.226C252.554 142.166 253.807 140.295 255.387 138.718C256.968 137.142 258.844 135.891 260.909 135.038C262.973 134.185 265.187 133.745 267.422 133.745Z" fill="#F0F0F0"/>
<path d="M28.8209 149.753L12.4902 137.296L7.31641e-05 153.583L16.3307 166.04L28.8209 149.753Z" fill="#F0F0F0"/>
<path d="M239.34 38.8609L254.043 148.789L38.7039 182.388L24.0013 72.4593L239.34 38.8609Z" fill="#F1F1F1" stroke="#111111" stroke-width="0.9"/>
<path d="M234.814 48.8133L30.9509 80.6211L43.3174 173.082L247.18 141.274L234.814 48.8133Z" fill="white"/>
<path d="M238.392 32.4723L239.599 41.5012L24.2604 75.0996L23.0528 66.0707L238.392 32.4723Z" fill="#E5E5E5" stroke="#111111" stroke-width="0.9"/>
<path d="M30.1553 72.321C31.1055 72.321 31.8758 71.4892 31.8758 70.463C31.8758 69.4368 31.1055 68.605 30.1553 68.605C29.2051 68.605 28.4348 69.4368 28.4348 70.463C28.4348 71.4892 29.2051 72.321 30.1553 72.321Z" fill="white"/>
<path d="M36.6177 71.3132C37.5679 71.3132 38.3382 70.4814 38.3382 69.4552C38.3382 68.429 37.5679 67.5972 36.6177 67.5972C35.6675 67.5972 34.8972 68.429 34.8972 69.4552C34.8972 70.4814 35.6675 71.3132 36.6177 71.3132Z" fill="white"/>
<path d="M43.0806 70.3049C44.0308 70.3049 44.8011 69.4731 44.8011 68.4469C44.8011 67.4207 44.0308 66.5889 43.0806 66.5889C42.1304 66.5889 41.3601 67.4207 41.3601 68.4469C41.3601 69.4731 42.1304 70.3049 43.0806 70.3049Z" fill="white"/>
<path d="M288.947 86.479V197.55H71.3738V86.479H288.947Z" fill="#E6E6E6" stroke="#111111" stroke-width="0.9"/>
<path d="M288.821 80.0435V89.1021H71.3137V80.0435H288.821Z" fill="#E5E5E5" stroke="#111111" stroke-width="0.965832"/>
<path d="M77.7278 87.3132C78.678 87.3132 79.4483 86.4814 79.4483 85.4552C79.4483 84.429 78.678 83.5972 77.7278 83.5972C76.7776 83.5972 76.0073 84.429 76.0073 85.4552C76.0073 86.4814 76.7776 87.3132 77.7278 87.3132Z" fill="white"/>
<path d="M84.2574 87.3132C85.2076 87.3132 85.9778 86.4814 85.9778 85.4552C85.9778 84.429 85.2076 83.5972 84.2574 83.5972C83.3072 83.5972 82.5369 84.429 82.5369 85.4552C82.5369 86.4814 83.3072 87.3132 84.2574 87.3132Z" fill="white"/>
<path d="M90.7871 87.3132C91.7373 87.3132 92.5076 86.4814 92.5076 85.4552C92.5076 84.429 91.7373 83.5972 90.7871 83.5972C89.8369 83.5972 89.0667 84.429 89.0667 85.4552C89.0667 86.4814 89.8369 87.3132 90.7871 87.3132Z" fill="white"/>
<path d="M282.7 96.0811V188.602H77.6211V96.0811H282.7Z" fill="white" stroke="#111111" stroke-width="0.9"/>
<ellipse cx="238.79" cy="133.504" rx="11.275" ry="11.3113" fill="#E6E6E6"/>
<path d="M256.636 162.544C256.636 160.424 256.177 158.325 255.285 156.367C254.392 154.409 253.084 152.629 251.436 151.131C249.787 149.632 247.829 148.443 245.675 147.632C243.521 146.821 241.212 146.403 238.88 146.403C236.548 146.403 234.239 146.821 232.085 147.632C229.93 148.443 227.973 149.632 226.324 151.131C224.675 152.629 223.367 154.409 222.475 156.367C221.582 158.325 221.123 160.424 221.123 162.544L238.88 162.544H256.636Z" fill="#E6E6E6"/>
<path d="M133.1 163.187H104.091V165.542H133.1V163.187Z" fill="#E6E6E6"/>
<path d="M136.718 169.306H100.209V171.661H136.718V169.306Z" fill="#E6E6E6"/>
<path d="M132.115 127.415H103.401V149.715H132.115V127.415Z" fill="#131E91"/>
<path d="M134.986 147.963H107.421C107.116 147.963 106.824 147.828 106.609 147.589C106.394 147.35 106.273 147.026 106.272 146.689V125.663C106.273 125.325 106.394 125.001 106.609 124.762C106.824 124.523 107.116 124.389 107.421 124.389H134.986C135.291 124.389 135.583 124.523 135.798 124.762C136.014 125.001 136.135 125.325 136.135 125.663V146.689C136.135 147.026 136.014 147.35 135.798 147.589C135.583 147.828 135.291 147.963 134.986 147.963ZM107.421 125.663V146.689H134.987L134.986 125.663H107.421Z" fill="#3F3D56"/>
<path d="M131.828 124.866H130.679C130.679 122.078 129.681 119.404 127.904 117.432C126.127 115.46 123.717 114.353 121.204 114.353C118.69 114.353 116.28 115.46 114.503 117.432C112.726 119.404 111.728 122.078 111.728 124.866H110.579C110.579 121.74 111.699 118.741 113.691 116.531C115.684 114.32 118.386 113.079 121.204 113.079C124.021 113.079 126.724 114.32 128.716 116.531C130.709 118.741 131.828 121.74 131.828 124.866Z" fill="#3F3D56"/>
<path d="M124.076 133.626C124.076 133.072 123.946 132.526 123.699 132.045C123.451 131.563 123.094 131.161 122.663 130.879C122.232 130.597 121.743 130.445 121.243 130.437C120.743 130.43 120.25 130.567 119.812 130.836C119.375 131.105 119.008 131.496 118.749 131.97C118.489 132.444 118.346 132.985 118.333 133.54C118.32 134.095 118.438 134.643 118.675 135.132C118.912 135.62 119.259 136.032 119.684 136.326V139.745C119.684 139.966 119.723 140.186 119.799 140.39C119.876 140.595 119.988 140.781 120.129 140.937C120.27 141.094 120.438 141.218 120.622 141.303C120.807 141.388 121.004 141.431 121.204 141.431C121.607 141.431 121.994 141.254 122.279 140.937C122.564 140.621 122.724 140.192 122.724 139.745V136.326C123.138 136.04 123.479 135.642 123.715 135.17C123.952 134.698 124.076 134.167 124.076 133.626Z" fill="#3F3D56"/>
</svg>
