<svg width="25" height="24" viewBox="0 0 25 24" fill="none" xmlns="http://www.w3.org/2000/svg">
<mask id="path-1-inside-1_698_787" fill="white">
<path d="M3.875 12.7308C3.875 11.0388 3.875 10.1928 4.22788 9.44909C4.58076 8.70544 5.24347 8.15485 6.5689 7.05369L7.85461 5.98552C10.2503 3.99517 11.4482 3 12.875 3C14.3018 3 15.4997 3.99517 17.8954 5.98552L19.1811 7.05369C20.5065 8.15485 21.1692 8.70544 21.5221 9.44909C21.875 10.1928 21.875 11.0388 21.875 12.7308V18.0152C21.875 20.3651 21.875 21.54 21.1218 22.27C20.3687 23 19.1565 23 16.7321 23H9.01786C6.59349 23 5.38131 23 4.62815 22.27C3.875 21.54 3.875 20.3651 3.875 18.0152V12.7308Z"/>
</mask>
<path d="M15.2893 23C15.2893 23.4418 15.6475 23.8 16.0893 23.8C16.5311 23.8 16.8893 23.4418 16.8893 23H16.0893H15.2893ZM8.86071 23C8.86071 23.4418 9.21889 23.8 9.66071 23.8C10.1025 23.8 10.4607 23.4418 10.4607 23H9.66071H8.86071ZM10.9464 15.5228V16.3228H14.8036V15.5228V14.7228H10.9464V15.5228ZM16.0893 16.769H15.2893V23H16.0893H16.8893V16.769H16.0893ZM9.66071 16.769H8.86071V23H9.66071H10.4607V16.769H9.66071ZM14.8036 15.5228V16.3228C15.0955 16.3228 15.2893 16.5459 15.2893 16.769H16.0893H16.8893C16.8893 15.6156 15.9318 14.7228 14.8036 14.7228V15.5228ZM10.9464 15.5228V14.7228C9.81824 14.7228 8.86071 15.6156 8.86071 16.769H9.66071H10.4607C10.4607 16.5459 10.6545 16.3228 10.9464 16.3228V15.5228ZM7.85461 5.98552L8.87706 7.2162L7.85461 5.98552ZM17.8954 5.98552L16.8729 7.2162L17.8954 5.98552ZM19.1811 7.05369L20.2036 5.82301V5.823L19.1811 7.05369ZM6.5689 7.05369L5.54644 5.823H5.54644L6.5689 7.05369ZM21.875 12.7308H20.275V18.0152H21.875H23.475V12.7308H21.875ZM16.7321 23V21.4H9.01786V23V24.6H16.7321V23ZM3.875 18.0152H5.475V12.7308H3.875H2.275V18.0152H3.875ZM6.5689 7.05369L7.59135 8.28438L8.87706 7.2162L7.85461 5.98552L6.83215 4.75483L5.54644 5.823L6.5689 7.05369ZM17.8954 5.98552L16.8729 7.2162L18.1587 8.28438L19.1811 7.05369L20.2036 5.823L18.9178 4.75483L17.8954 5.98552ZM7.85461 5.98552L8.87706 7.2162C10.1063 6.19498 10.9167 5.52543 11.5908 5.09391C12.2263 4.68706 12.5806 4.6 12.875 4.6V3V1.4C11.7425 1.4 10.7845 1.81052 9.86548 2.39885C8.985 2.9625 7.99864 3.78571 6.83215 4.75483L7.85461 5.98552ZM17.8954 5.98552L18.9178 4.75483C17.7514 3.78571 16.765 2.9625 15.8845 2.39885C14.9655 1.81052 14.0075 1.4 12.875 1.4V3V4.6C13.1694 4.6 13.5237 4.68706 14.1592 5.09391C14.8333 5.52543 15.6437 6.19498 16.8729 7.2162L17.8954 5.98552ZM9.01786 23V21.4C7.7618 21.4 6.97583 21.3968 6.40306 21.3222C5.87133 21.2529 5.76976 21.1483 5.74173 21.1211L4.62815 22.27L3.51457 23.4189C4.23971 24.1217 5.12081 24.3821 5.98955 24.4953C6.81725 24.6032 7.84955 24.6 9.01786 24.6V23ZM3.875 18.0152H2.275C2.275 19.1435 2.27139 20.1557 2.38432 20.9699C2.50436 21.8353 2.78246 22.7093 3.51457 23.4189L4.62815 22.27L5.74173 21.1211C5.72069 21.1007 5.62222 21.0222 5.55397 20.5302C5.47861 19.9869 5.475 19.2367 5.475 18.0152H3.875ZM21.875 18.0152H20.275C20.275 19.2367 20.2714 19.9869 20.196 20.5302C20.1278 21.0222 20.0293 21.1007 20.0083 21.1211L21.1218 22.27L22.2354 23.4189C22.9675 22.7093 23.2456 21.8353 23.3657 20.9699C23.4786 20.1557 23.475 19.1435 23.475 18.0152H21.875ZM16.7321 23V24.6C17.9004 24.6 18.9328 24.6032 19.7605 24.4953C20.6292 24.3821 21.5103 24.1217 22.2354 23.4189L21.1218 22.27L20.0083 21.1211C19.9802 21.1483 19.8787 21.2529 19.3469 21.3222C18.7742 21.3968 17.9882 21.4 16.7321 21.4V23ZM21.875 12.7308H23.475C23.475 11.1885 23.511 9.90824 22.9676 8.76317L21.5221 9.44909L20.0766 10.135C20.239 10.4773 20.275 10.889 20.275 12.7308H21.875ZM19.1811 7.05369L18.1587 8.28438C19.6 9.48186 19.9108 9.78568 20.0766 10.135L21.5221 9.44909L22.9676 8.76317C22.4276 7.62519 21.413 6.82784 20.2036 5.82301L19.1811 7.05369ZM3.875 12.7308H5.475C5.475 10.889 5.51099 10.4773 5.67339 10.135L4.22788 9.44909L2.78236 8.76317C2.23901 9.90824 2.275 11.1885 2.275 12.7308H3.875ZM6.5689 7.05369L5.54644 5.823C4.33696 6.82784 3.32236 7.62519 2.78236 8.76317L4.22788 9.44909L5.67339 10.135C5.83916 9.78568 6.14998 9.48187 7.59135 8.28438L6.5689 7.05369Z" fill="#A0A4AE" mask="url(#path-1-inside-1_698_787)"/>
</svg>
