<svg width="16" height="16" viewBox="0 0 16 16" fill="none" xmlns="http://www.w3.org/2000/svg">
<path d="M10.0001 6.66668L9.50675 6.58468C9.49484 6.65631 9.49867 6.72967 9.51798 6.79966C9.53729 6.86965 9.57162 6.9346 9.61857 6.98999C9.66552 7.04537 9.72396 7.08987 9.78985 7.12038C9.85573 7.1509 9.92747 7.1667 10.0001 7.16668V6.66668ZM2.66675 6.66668V6.16668C2.53414 6.16668 2.40696 6.21936 2.31319 6.31313C2.21943 6.4069 2.16675 6.53407 2.16675 6.66668H2.66675ZM4.00008 13.8333H11.5734V12.8333H4.00008V13.8333ZM12.3734 6.16668H10.0001V7.16668H12.3734V6.16668ZM10.4934 6.74868L11.0307 3.52535L10.0441 3.36068L9.50675 6.58468L10.4934 6.74868ZM9.88008 2.16668H9.73741V3.16668H9.87941L9.88008 2.16668ZM7.65675 3.28002L5.98008 5.79535L6.81208 6.35002L8.48875 3.83468L7.65675 3.28002ZM5.28675 6.16668H2.66675V7.16668H5.28675V6.16668ZM2.16675 6.66668V12H3.16675V6.66668H2.16675ZM13.3714 12.36L14.1714 8.36002L13.1914 8.16335L12.3914 12.1633L13.3714 12.36ZM5.98008 5.79535C5.90401 5.90954 5.80093 6.00251 5.67998 6.06729C5.55903 6.13207 5.42395 6.16598 5.28675 6.16602V7.16602C5.90008 7.16602 6.47208 6.86001 6.81208 6.35002L5.98008 5.79535ZM11.0307 3.52535C11.0585 3.35826 11.0496 3.18646 11.0046 3.02318C10.9595 2.85989 10.8795 2.70837 10.77 2.57914C10.6605 2.44991 10.5242 2.34608 10.3705 2.27485C10.2168 2.20362 10.0495 2.16671 9.88008 2.16668L9.87941 3.16668C9.90358 3.16674 9.92811 3.17206 9.95002 3.18225C9.97192 3.19245 9.99135 3.2073 10.007 3.22575C10.0226 3.2442 10.034 3.26583 10.0404 3.28913C10.0468 3.31243 10.048 3.33684 10.0441 3.36068L11.0307 3.52535ZM12.3734 7.16602C12.9001 7.16602 13.2934 7.64735 13.1907 8.16268L14.1714 8.35935C14.2245 8.09341 14.2179 7.81835 14.1521 7.55527C14.0863 7.29219 13.963 7.04699 13.791 6.83732C13.619 6.62765 13.4027 6.45875 13.1575 6.34278C12.9124 6.22681 12.6446 6.16667 12.3734 6.16668V7.16602ZM11.5734 13.8333C11.9972 13.8334 12.408 13.686 12.7358 13.4174C13.0636 13.1488 13.2882 12.7749 13.3714 12.3593L12.3914 12.1627C12.3536 12.3517 12.2514 12.5219 12.1023 12.644C11.9531 12.7662 11.7662 12.8335 11.5734 12.8333V13.8333ZM9.73741 2.16668C9.32586 2.16671 8.92067 2.26768 8.55783 2.4619C8.19498 2.65611 7.88569 2.9369 7.65741 3.27935L8.48875 3.83468C8.62578 3.62912 8.81145 3.45992 9.02929 3.34339C9.24712 3.22685 9.49037 3.16659 9.73741 3.16668V2.16668ZM4.00008 12.8333C3.54008 12.8333 3.16675 12.46 3.16675 12H2.16675C2.16675 12.4862 2.3599 12.9526 2.70372 13.2964C3.04754 13.6402 3.51385 13.8333 4.00008 13.8333V12.8333Z" fill="#6B7280"/>
<path d="M5.3335 6.66663V13.3333" stroke="#6B7280" stroke-width="1.5"/>
</svg>
