<?xml version="1.0" encoding="UTF-8"?>
<!DOCTYPE svg PUBLIC "-//W3C//DTD SVG 1.1//EN" "http://www.w3.org/Graphics/SVG/1.1/DTD/svg11.dtd">
<!-- Creator: CorelDRAW (OEM Version) -->
<svg xmlns="http://www.w3.org/2000/svg" xml:space="preserve" width="2.64126in" height="2.33888in" version="1.1" style="shape-rendering:geometricPrecision; text-rendering:geometricPrecision; image-rendering:optimizeQuality; fill-rule:evenodd; clip-rule:evenodd"
viewBox="0 0 274.63 243.19"
 xmlns:xlink="http://www.w3.org/1999/xlink"
 xmlns:xodm="http://www.corel.com/coreldraw/odm/2003">
 <defs>
  <style type="text/css">
   <![CDATA[
    .fil0 {fill:#FEFEFE}
   ]]>
  </style>
 </defs>
 <g id="PowerClip_x0020_Contents">
  <metadata id="CorelCorpID_0Corel-Layer"/>
  <g id="_2114950900352">
   <path class="fil0" d="M96.49 53.01c1.67,-7.91 8.46,-19.67 12.46,-25.25l6.16 -8.06c2.93,-3.3 10.93,-9.37 11.71,-11.53 -2.78,-0.8 -6.13,-2.39 -8.96,-3.48 -10.31,-3.98 -20.57,-5.3 -31.94,-4.44 -16.73,1.26 -32.89,8.38 -44.07,17.94 -29.94,25.62 -36.67,67.75 -14.82,101.94 0.96,1.5 1.76,2.3 2.64,3.59 2.92,4.27 8.19,9.6 11.98,12.97l6.94 5.19c18.02,12 37.1,15.77 59.4,11.4 4.79,-0.94 15.76,-3.68 18.12,-6.45 -0.75,-1.55 -4.79,-4.68 -6.21,-5.9 -1.89,-1.62 -3.98,-4.08 -5.72,-6.04 -11.25,-12.71 -19.52,-31.38 -20.99,-49.72l-10.42 -0.01c-0.23,-7.75 -0.11,-14.39 1.61,-21.68 0.95,-4.03 2.84,-9.25 5.06,-12.61 0.44,-0.66 0.61,-0.93 1.11,-1.67l0.74 -1c0.04,-0.05 0.14,-0.15 0.17,-0.18 0.04,-0.04 0.16,-0.07 0.18,-0.18 0.03,-0.11 0.12,-0.12 0.19,-0.18 1.3,0.55 1.44,1.27 2.33,2.58 1.48,2.18 0.85,2.03 2.34,2.78z"/>
   <path class="fil0" d="M146.39 22.17c2.21,-2.36 10.15,-5.45 14.16,-6.59 28.33,-8.09 56.01,1.38 72.57,24.63 4.74,6.65 11.15,19.11 11.55,29.7l-15.71 0c0.09,1.92 4.76,7.79 6.06,9.66l19.02 27.38c3.44,-1.92 6.76,-10.65 7.96,-15.56 1.89,-7.7 1.84,-13.26 1.72,-21.48l-7.97 0c-3.84,-25.32 -14.18,-39.58 -27.97,-51.37 -15.49,-13.24 -39.95,-19.65 -60.83,-15.62 -10.44,2.01 -21.21,6.17 -28.9,10.96 -8.48,5.28 -14.1,11.28 -20.14,19.36 -5.39,7.21 -10.05,16.44 -12.46,27.04 -0.97,4.24 -1.56,3.97 0.6,7.2 1.3,1.94 2.68,3.92 3.98,5.73 1.32,1.84 7.58,10.1 7.68,11.8l-14.02 0.2c0.41,15.88 12.02,38.18 23.27,48.01 1.45,1.27 2.76,2.53 4.3,3.67 3.05,2.25 5.82,4.37 9.5,6.44 24.51,13.8 50.8,14.26 75.11,1.72 7.16,-3.69 13.21,-8.87 18,-13.53 2.66,-2.58 12,-13.86 13.29,-18.3 -0.52,-1 -1.1,-1.61 -1.74,-2.46 -0.75,-1.01 -0.9,-1.38 -1.68,-2.5 -1.09,-1.58 -2.33,-3.31 -3.57,-4.65 -0.99,1.21 -2.29,4.19 -3.14,5.78 -3.65,6.81 -6.18,9.91 -11.7,15.34 -13.74,13.5 -32.51,20.1 -53.05,17.91 -7.98,-0.85 -22.04,-4.9 -26.36,-9.31 2.12,-3.24 7.92,-6.33 16.21,-23.28 10.07,-20.57 9.37,-43.77 0.29,-64.66 -2.93,-6.75 -10.54,-18.27 -16.04,-23.21z"/>
   <path class="fil0" d="M43 175.92c1.32,-3.32 5.29,-6.98 6.18,-10.1 -4.19,-2.32 -7.09,-4.2 -12.78,-5.48 -14.5,-3.28 -34.75,0.44 -34.75,17.34 0,8.92 4.08,13.06 10.98,15.77 6.56,2.58 15.87,2.3 21.2,4.78 6.25,2.92 5.55,11.24 -7.18,11.53 -11.6,0.26 -14.77,-4.14 -19.4,-6.07 -0.75,0.6 -6.85,9.01 -7.26,10.47 10.09,5.62 13.06,8.22 27.01,8.22 20.67,0 29.08,-15.78 22.58,-27.43 -1.91,-3.42 -5.47,-6.25 -9.72,-7.95 -9.58,-3.84 -27.49,-1.98 -24.01,-11.47 1.41,-3.85 8.77,-4.64 13.93,-4.1 8.32,0.86 10.83,4.14 13.2,4.48z"/>
   <path class="fil0" d="M47.11 178.44l14.21 42.57 13.26 0c1.31,-3.86 2.69,-7.97 4.05,-11.8 1.16,-3.28 2.8,-9.08 4.21,-11.71 1.27,1.94 7.66,20.34 8.2,23.52l13.28 -0.01 14.19 -42.61 -14.52 0.02 -6.79 25.32 -0.99 -1.67c-1.82,-4.97 -8.12,-21.43 -8.51,-23.67l-9.45 0c-0.76,2.78 -8.51,24.24 -9.68,25.35 -1.14,-4.22 -2.2,-8.77 -3.35,-12.97 -1.12,-4.1 -2.57,-8.4 -3.5,-12.39l-14.6 0.06z"/>
   <path class="fil0" d="M233.24 189.47c0.63,-6.81 10.71,-7.87 15.37,-4.29 2.62,2.02 2.53,5.6 0.01,7.89 -2.28,2.06 -5.88,2.22 -9.5,2.31 -3.25,0.08 -7.11,0.94 -9.64,2.12 -10.45,4.87 -8.83,14.63 -8.71,26.29l32.23 0.02 -0 19.39 10.05 0 0 -19.06c2.66,0 9.15,0.47 11.16,-0.23 0.58,-1.34 0.58,-8.6 -0.01,-9.92 -1.95,-0.7 -8.52,-0.24 -11.15,-0.24l0.01 -9.01 -10.06 0 0 9.01 -20.45 -0c0.11,-5.74 1.67,-8.24 7.28,-8.67 8.21,-0.62 18.41,-0.38 21.69,-10.2 1.45,-4.33 1.07,-9.59 -0.9,-13 -3.95,-6.84 -12.67,-9.47 -23.44,-8.19 -8.96,1.06 -15.64,6.48 -15.71,15.8l11.79 0z"/>
   <path class="fil0" d="M187.3 189.42c15.26,-3.57 16.63,17.82 6.13,20.56 -15.12,3.94 -17.54,-17.89 -6.13,-20.56zm-6.98 27.89c3.15,2.21 5.68,3.99 10.83,4.47 4.87,0.46 9.06,-0.59 12.55,-2.57 14.08,-7.99 13.61,-33 -1.52,-39.94 -7.47,-3.42 -18.9,-1.72 -22.96,3.8l-0.77 -4.7 -11.83 -0 0 61.06 13.57 -0.02 0.13 -22.11z"/>
   <path class="fil0" d="M135.31 189.42c15.23,-3.55 16.69,17.83 6.14,20.56 -14.89,3.85 -17.73,-17.86 -6.14,-20.56zm13.95 -6.95c-2.38,0.04 -3.12,-3.4 -10.66,-4.8 -4.87,-0.91 -9.22,0.06 -12.97,1.93 -13.05,6.5 -13.02,25.11 -7.93,32.86 8.61,13.1 24.96,11.01 31.29,3.84l0.98 4.36c0.46,0.28 -0.35,0.04 0.81,0.32 0.66,0.16 -0.08,0.02 0.63,0.11l10.41 -0.08 0 -42.63 -11.96 -0.02 -0.61 4.1z"/>
   <path class="fil0" d="M266.42 11.1l0.09 4.73 2.08 0 -0.05 -9.01c-1.98,0.54 -3.16,2.76 -4.56,4.02 -1.7,-1.56 -2.34,-3.03 -4.72,-4l-0.02 8.99 2.08 0 0.13 -4.36 2.38 1.95 2.61 -2.32z"/>
   <polygon class="fil0" points="254.37,15.83 254.37,8.55 257.14,8.55 257.14,6.8 249.58,6.56 249.52,8.55 252.29,8.55 252.29,15.83 "/>
  </g>
 </g>
</svg>
