<svg width="25" height="24" viewBox="0 0 25 24" fill="none" xmlns="http://www.w3.org/2000/svg">
<path d="M10.2018 12.482L9.5362 12.0382L10.2018 12.482ZM6.15381 17.1118C5.90872 17.4794 6.00806 17.9761 6.37569 18.2212C6.74331 18.4663 7.24 18.3669 7.48509 17.9993L6.81945 17.5556L6.15381 17.1118ZM18.5962 9.11043C18.8413 8.7428 18.7419 8.24611 18.3743 8.00103C18.0067 7.75594 17.51 7.85528 17.2649 8.22291L17.9306 8.66667L18.5962 9.11043ZM14.5482 13.7403L15.2138 14.184L14.5482 13.7403ZM12.6299 13.6208L13.3454 13.2631L12.6299 13.6208ZM12.1201 12.6014L12.8357 12.2436L12.1201 12.6014ZM10.2018 12.482L9.5362 12.0382L6.15381 17.1118L6.81945 17.5556L7.48509 17.9993L10.8675 12.9257L10.2018 12.482ZM17.9306 8.66667L17.2649 8.22291L13.8825 13.2965L14.5482 13.7403L15.2138 14.184L18.5962 9.11043L17.9306 8.66667ZM12.6299 13.6208L13.3454 13.2631L12.8357 12.2436L12.1201 12.6014L11.4046 12.9592L11.9143 13.9786L12.6299 13.6208ZM14.5482 13.7403L13.8825 13.2965C13.75 13.4953 13.4522 13.4767 13.3454 13.2631L12.6299 13.6208L11.9143 13.9786C12.5706 15.2911 14.3998 15.405 15.2138 14.184L14.5482 13.7403ZM10.2018 12.482L10.8675 12.9257C11 12.727 11.2978 12.7455 11.4046 12.9592L12.1201 12.6014L12.8357 12.2436C12.1794 10.9311 10.3502 10.8173 9.5362 12.0382L10.2018 12.482ZM6.81944 2V2.8H17.9306V2V1.2H6.81944V2ZM22.375 6.44444H21.575V17.5556H22.375H23.175V6.44444H22.375ZM17.9306 22V21.2H6.81944V22V22.8H17.9306V22ZM2.375 17.5556H3.175V6.44444H2.375H1.575V17.5556H2.375ZM6.81944 22V21.2C5.74926 21.2 5.02711 21.1983 4.48766 21.1258C3.97123 21.0563 3.74358 20.9355 3.59156 20.7834L3.02587 21.3491L2.46019 21.9148C2.95904 22.4137 3.58061 22.6182 4.27446 22.7115C4.9453 22.8017 5.79449 22.8 6.81944 22.8V22ZM2.375 17.5556H1.575C1.575 18.5805 1.5733 19.4297 1.66349 20.1005C1.75678 20.7944 1.96134 21.416 2.46019 21.9148L3.02587 21.3491L3.59156 20.7834C3.43954 20.6314 3.31866 20.4038 3.24923 19.8873C3.1767 19.3479 3.175 18.6257 3.175 17.5556H2.375ZM22.375 17.5556H21.575C21.575 18.6257 21.5733 19.3479 21.5008 19.8873C21.4313 20.4038 21.3105 20.6314 21.1584 20.7834L21.7241 21.3491L22.2898 21.9148C22.7887 21.416 22.9932 20.7944 23.0865 20.1005C23.1767 19.4297 23.175 18.5805 23.175 17.5556H22.375ZM17.9306 22V22.8C18.9555 22.8 19.8047 22.8017 20.4755 22.7115C21.1694 22.6182 21.791 22.4137 22.2898 21.9148L21.7241 21.3491L21.1584 20.7834C21.0064 20.9355 20.7788 21.0563 20.2623 21.1258C19.7229 21.1983 19.0007 21.2 17.9306 21.2V22ZM17.9306 2V2.8C19.0007 2.8 19.7229 2.8017 20.2623 2.87423C20.7788 2.94366 21.0064 3.06454 21.1584 3.21656L21.7241 2.65087L22.2898 2.08519C21.791 1.58634 21.1694 1.38178 20.4755 1.28849C19.8047 1.1983 18.9555 1.2 17.9306 1.2V2ZM22.375 6.44444H23.175C23.175 5.41949 23.1767 4.5703 23.0865 3.89946C22.9932 3.20561 22.7887 2.58404 22.2898 2.08519L21.7241 2.65087L21.1584 3.21656C21.3105 3.36858 21.4313 3.59623 21.5008 4.11266C21.5733 4.65211 21.575 5.37426 21.575 6.44444H22.375ZM6.81944 2V1.2C5.79449 1.2 4.9453 1.1983 4.27446 1.28849C3.58061 1.38178 2.95904 1.58634 2.46019 2.08519L3.02587 2.65087L3.59156 3.21656C3.74358 3.06454 3.97123 2.94366 4.48766 2.87423C5.02711 2.8017 5.74926 2.8 6.81944 2.8V2ZM2.375 6.44444H3.175C3.175 5.37426 3.1767 4.65211 3.24923 4.11266C3.31866 3.59623 3.43954 3.36858 3.59156 3.21656L3.02587 2.65087L2.46019 2.08519C1.96134 2.58404 1.75678 3.20561 1.66349 3.89946C1.5733 4.5703 1.575 5.41949 1.575 6.44444H2.375Z" fill="#A0A4AE"/>
</svg>
