<svg width="14" height="14" viewBox="0 0 14 14" fill="none" xmlns="http://www.w3.org/2000/svg">
<path d="M2.7334 5.39995H3.80007V2.19995H4.86673L6.69073 5.39995H9.1334V2.19995H10.2001V5.39995H11.2667V6.46662H10.2001V7.53328H11.2667V8.59995H10.2001V11.8H9.1334L7.30407 8.59995H4.86673V11.8H3.80007V8.59995H2.7334V7.53328H3.80007V6.46662H2.7334V5.39995ZM4.86673 5.39995H5.4694L4.86673 4.34928V5.39995ZM4.86673 6.46662V7.53328H6.69073L6.08273 6.46662H4.86673ZM9.1334 9.66662V8.59995H8.52007L9.1334 9.66662ZM7.29873 6.46662L7.91207 7.53328H9.1334V6.46662H7.29873Z" fill="white"/>
</svg>
