<svg width="327" height="240" viewBox="0 0 327 240" fill="none" xmlns="http://www.w3.org/2000/svg">
<rect width="327" height="240" fill="white"/>
<path d="M138.303 48.6075C140.883 48.6055 143.428 49.2061 145.734 50.3612C148.039 51.5164 150.042 53.1939 151.581 55.2595L161.116 42.8248L132.504 21L110.621 49.5355L122.953 58.942C124.187 55.8896 126.308 53.2747 129.043 51.4333C131.778 49.5918 135.003 48.6078 138.303 48.6075Z" fill="#F0F0F0"/>
<path d="M272.422 154.745H319.341C321.303 162.181 321.528 169.966 319.999 177.502C318.471 185.038 315.229 192.123 310.524 198.214C305.819 204.304 299.775 209.237 292.859 212.632C285.942 216.028 278.337 217.796 270.628 217.8C269.252 217.8 267.89 217.745 266.543 217.634V190.047C266.544 188.724 266.219 187.421 265.596 186.254C264.973 185.086 264.072 184.089 262.971 183.351C261.87 182.613 260.605 182.156 259.285 182.022C257.966 181.887 256.634 182.078 255.406 182.578V171.722C255.405 169.493 255.844 167.286 256.699 165.226C257.554 163.166 258.807 161.295 260.387 159.718C261.968 158.142 263.844 156.891 265.909 156.038C267.973 155.185 270.187 154.745 272.422 154.745Z" fill="#F0F0F0"/>
<path d="M33.8209 170.753L17.4902 158.296L5.00007 174.583L21.3307 187.04L33.8209 170.753Z" fill="#F0F0F0"/>
<path d="M244.34 59.8609L259.043 169.789L43.7039 203.388L29.0013 93.4593L244.34 59.8609Z" fill="#F1F1F1" stroke="#111111" stroke-width="0.9"/>
<path d="M239.814 69.8133L35.9509 101.621L48.3174 194.082L252.18 162.274L239.814 69.8133Z" fill="white"/>
<path d="M243.392 53.4723L244.599 62.5012L29.2604 96.0996L28.0528 87.0707L243.392 53.4723Z" fill="#E5E5E5" stroke="#111111" stroke-width="0.9"/>
<path d="M35.1553 93.321C36.1055 93.321 36.8758 92.4892 36.8758 91.463C36.8758 90.4368 36.1055 89.605 35.1553 89.605C34.2051 89.605 33.4348 90.4368 33.4348 91.463C33.4348 92.4892 34.2051 93.321 35.1553 93.321Z" fill="white"/>
<path d="M41.6177 92.3132C42.5679 92.3132 43.3382 91.4814 43.3382 90.4552C43.3382 89.429 42.5679 88.5972 41.6177 88.5972C40.6675 88.5972 39.8972 89.429 39.8972 90.4552C39.8972 91.4814 40.6675 92.3132 41.6177 92.3132Z" fill="white"/>
<path d="M48.0806 91.3049C49.0308 91.3049 49.8011 90.4731 49.8011 89.4469C49.8011 88.4207 49.0308 87.5889 48.0806 87.5889C47.1304 87.5889 46.3601 88.4207 46.3601 89.4469C46.3601 90.4731 47.1304 91.3049 48.0806 91.3049Z" fill="white"/>
<path d="M293.947 107.479V218.55H76.3738V107.479H293.947Z" fill="#E6E6E6" stroke="#111111" stroke-width="0.9"/>
<path d="M293.821 101.043V110.102H76.3137V101.043H293.821Z" fill="#E5E5E5" stroke="#111111" stroke-width="0.965832"/>
<path d="M82.7278 108.313C83.678 108.313 84.4483 107.481 84.4483 106.455C84.4483 105.429 83.678 104.597 82.7278 104.597C81.7776 104.597 81.0073 105.429 81.0073 106.455C81.0073 107.481 81.7776 108.313 82.7278 108.313Z" fill="white"/>
<path d="M89.2574 108.313C90.2076 108.313 90.9778 107.481 90.9778 106.455C90.9778 105.429 90.2076 104.597 89.2574 104.597C88.3072 104.597 87.5369 105.429 87.5369 106.455C87.5369 107.481 88.3072 108.313 89.2574 108.313Z" fill="white"/>
<path d="M95.7871 108.313C96.7373 108.313 97.5076 107.481 97.5076 106.455C97.5076 105.429 96.7373 104.597 95.7871 104.597C94.8369 104.597 94.0667 105.429 94.0667 106.455C94.0667 107.481 94.8369 108.313 95.7871 108.313Z" fill="white"/>
<path d="M287.7 117.081V209.602H82.6211V117.081H287.7Z" fill="white" stroke="#111111" stroke-width="0.9"/>
<ellipse cx="243.79" cy="154.504" rx="11.275" ry="11.3113" fill="#E6E6E6"/>
<path d="M261.636 183.544C261.636 181.424 261.177 179.325 260.285 177.367C259.392 175.409 258.084 173.629 256.436 172.131C254.787 170.632 252.829 169.443 250.675 168.632C248.521 167.821 246.212 167.403 243.88 167.403C241.548 167.403 239.239 167.821 237.085 168.632C234.93 169.443 232.973 170.632 231.324 172.131C229.675 173.629 228.367 175.409 227.475 177.367C226.582 179.325 226.123 181.424 226.123 183.544L243.88 183.544H261.636Z" fill="#E6E6E6"/>
<path d="M138.1 184.187H109.091V186.542H138.1V184.187Z" fill="#E6E6E6"/>
<path d="M141.718 190.306H105.209V192.661H141.718V190.306Z" fill="#E6E6E6"/>
<path d="M137.115 148.415H108.401V170.715H137.115V148.415Z" fill="#131E91"/>
<path d="M139.986 168.963H112.421C112.116 168.963 111.824 168.828 111.609 168.589C111.394 168.35 111.273 168.026 111.272 167.689V146.663C111.273 146.325 111.394 146.001 111.609 145.762C111.824 145.523 112.116 145.389 112.421 145.389H139.986C140.291 145.389 140.583 145.523 140.798 145.762C141.014 146.001 141.135 146.325 141.135 146.663V167.689C141.135 168.026 141.014 168.35 140.798 168.589C140.583 168.828 140.291 168.963 139.986 168.963ZM112.421 146.663V167.689H139.987L139.986 146.663H112.421Z" fill="#3F3D56"/>
<path d="M136.828 145.866H135.679C135.679 143.078 134.681 140.404 132.904 138.432C131.127 136.46 128.717 135.353 126.204 135.353C123.69 135.353 121.28 136.46 119.503 138.432C117.726 140.404 116.728 143.078 116.728 145.866H115.579C115.579 142.74 116.699 139.741 118.691 137.531C120.684 135.32 123.386 134.079 126.204 134.079C129.021 134.079 131.724 135.32 133.716 137.531C135.709 139.741 136.828 142.74 136.828 145.866Z" fill="#3F3D56"/>
<path d="M129.076 154.626C129.076 154.072 128.946 153.526 128.699 153.045C128.451 152.563 128.094 152.161 127.663 151.879C127.232 151.597 126.743 151.445 126.243 151.437C125.743 151.43 125.25 151.567 124.812 151.836C124.375 152.105 124.008 152.496 123.749 152.97C123.489 153.444 123.346 153.985 123.333 154.54C123.32 155.095 123.438 155.643 123.675 156.132C123.912 156.62 124.259 157.032 124.684 157.326V160.745C124.684 160.966 124.723 161.186 124.799 161.39C124.876 161.595 124.988 161.781 125.129 161.937C125.27 162.094 125.438 162.218 125.622 162.303C125.807 162.388 126.004 162.431 126.204 162.431C126.607 162.431 126.994 162.254 127.279 161.937C127.564 161.621 127.724 161.192 127.724 160.745V157.326C128.138 157.04 128.479 156.642 128.715 156.17C128.952 155.698 129.076 155.167 129.076 154.626Z" fill="#3F3D56"/>
</svg>
