<?xml version="1.0" encoding="UTF-8"?>
<!DOCTYPE svg PUBLIC "-//W3C//DTD SVG 1.1//EN" "http://www.w3.org/Graphics/SVG/1.1/DTD/svg11.dtd">
<!-- Creator: CorelDRAW (OEM Version) -->
<svg xmlns="http://www.w3.org/2000/svg" xml:space="preserve" width="2.64126in" height="2.33888in" version="1.1" style="shape-rendering:geometricPrecision; text-rendering:geometricPrecision; image-rendering:optimizeQuality; fill-rule:evenodd; clip-rule:evenodd"
viewBox="0 0 236.09 209.06"
 xmlns:xlink="http://www.w3.org/1999/xlink"
 xmlns:xodm="http://www.corel.com/coreldraw/odm/2003">
 <defs>
  <style type="text/css">
   <![CDATA[
    .fil2 {fill:black}
    .fil1 {fill:#131E91}
    .fil0 {fill:#EC990F}
   ]]>
  </style>
 </defs>
 <g id="PowerClip_x0020_Contents">
  <metadata id="CorelCorpID_0Corel-Layer"/>
  <g id="_2115779901136">
   <path class="fil0" d="M82.95 45.57c1.44,-6.8 7.27,-16.91 10.71,-21.71l5.3 -6.93c2.52,-2.84 9.39,-8.05 10.07,-9.91 -2.39,-0.69 -5.27,-2.06 -7.7,-3 -8.86,-3.42 -17.68,-4.55 -27.46,-3.82 -14.38,1.08 -28.28,7.2 -37.89,15.43 -25.74,22.03 -31.52,58.24 -12.74,87.64 0.82,1.29 1.51,1.98 2.27,3.08 2.51,3.67 7.04,8.25 10.3,11.15l5.96 4.46c15.49,10.32 31.89,13.56 51.06,9.8 4.12,-0.81 13.55,-3.17 15.58,-5.54 -0.64,-1.33 -4.12,-4.03 -5.34,-5.08 -1.62,-1.39 -3.42,-3.5 -4.92,-5.19 -9.67,-10.92 -16.78,-26.97 -18.05,-42.74l-8.96 -0.01c-0.2,-6.66 -0.1,-12.37 1.38,-18.64 0.82,-3.46 2.44,-7.95 4.35,-10.84 0.38,-0.57 0.53,-0.8 0.96,-1.43l0.63 -0.86c0.04,-0.04 0.12,-0.12 0.15,-0.16 0.03,-0.03 0.13,-0.06 0.16,-0.15 0.02,-0.1 0.1,-0.1 0.16,-0.15 1.12,0.47 1.24,1.09 2,2.21 1.27,1.87 0.73,1.75 2.01,2.39z"/>
   <path class="fil1" d="M125.84 19.06c1.9,-2.03 8.73,-4.68 12.17,-5.67 24.35,-6.95 48.15,1.18 62.39,21.17 4.07,5.72 9.59,16.43 9.93,25.53l-13.51 0c0.08,1.65 4.09,6.7 5.21,8.31l16.35 23.54c2.96,-1.65 5.81,-9.16 6.85,-13.38 1.63,-6.62 1.58,-11.4 1.48,-18.47l-6.86 0c-3.3,-21.77 -12.19,-34.02 -24.05,-44.16 -13.31,-11.38 -34.34,-16.89 -52.29,-13.43 -8.97,1.73 -18.23,5.31 -24.84,9.43 -7.29,4.54 -12.13,9.7 -17.32,16.65 -4.63,6.2 -8.64,14.13 -10.72,23.24 -0.83,3.65 -1.34,3.41 0.52,6.19 1.12,1.67 2.31,3.37 3.42,4.93 1.14,1.58 6.51,8.69 6.6,10.14l-12.05 0.18c0.36,13.65 10.34,32.82 20,41.27 1.25,1.09 2.38,2.18 3.7,3.15 2.62,1.93 5,3.76 8.16,5.54 21.07,11.86 43.67,12.26 64.57,1.48 6.16,-3.17 11.35,-7.63 15.47,-11.63 2.28,-2.22 10.32,-11.92 11.43,-15.73 -0.45,-0.86 -0.95,-1.38 -1.49,-2.12 -0.65,-0.87 -0.77,-1.18 -1.44,-2.15 -0.94,-1.35 -2,-2.85 -3.07,-4 -0.85,1.04 -1.97,3.6 -2.7,4.97 -3.14,5.85 -5.31,8.52 -10.06,13.19 -11.81,11.6 -27.94,17.28 -45.6,15.4 -6.86,-0.73 -18.94,-4.21 -22.66,-8.01 1.82,-2.78 6.81,-5.44 13.94,-20.01 8.65,-17.69 8.06,-37.63 0.25,-55.58 -2.52,-5.8 -9.06,-15.7 -13.79,-19.96z"/>
  </g>
  <path class="fil2" d="M36.96 151.23c1.14,-2.85 4.55,-6 5.31,-8.68 -3.6,-2 -6.1,-3.61 -10.99,-4.71 -12.46,-2.82 -29.87,0.38 -29.87,14.91 0,7.67 3.51,11.22 9.44,13.56 5.64,2.22 13.64,1.98 18.23,4.11 5.37,2.51 4.77,9.66 -6.17,9.91 -9.97,0.22 -12.7,-3.56 -16.68,-5.22 -0.65,0.51 -5.89,7.74 -6.24,9 8.67,4.83 11.22,7.07 23.22,7.07 17.77,0 25,-13.57 19.41,-23.58 -1.64,-2.94 -4.71,-5.37 -8.36,-6.84 -8.23,-3.3 -23.63,-1.7 -20.64,-9.86 1.21,-3.31 7.54,-3.99 11.97,-3.53 7.15,0.74 9.31,3.55 11.35,3.85z"/>
  <path class="fil2" d="M40.5 153.4l12.22 36.59 11.4 0c1.13,-3.31 2.32,-6.85 3.48,-10.15 1,-2.82 2.41,-7.8 3.62,-10.07 1.09,1.67 6.59,17.49 7.05,20.22l11.42 -0.01 12.2 -36.63 -12.49 0.01 -5.84 21.77 -0.86 -1.43c-1.57,-4.27 -6.98,-18.42 -7.32,-20.35l-8.13 0c-0.65,2.39 -7.32,20.83 -8.32,21.8 -0.98,-3.63 -1.89,-7.54 -2.88,-11.15 -0.96,-3.52 -2.21,-7.22 -3.01,-10.65l-12.55 0.05z"/>
  <path class="fil1" d="M200.51 162.88c0.54,-5.86 9.21,-6.77 13.21,-3.69 2.25,1.73 2.17,4.82 0,6.78 -1.96,1.77 -5.05,1.91 -8.17,1.98 -2.8,0.06 -6.11,0.81 -8.29,1.82 -8.98,4.19 -7.59,12.57 -7.49,22.6l27.71 0.02 -0 16.67 8.64 0 0 -16.39c2.29,0 7.87,0.4 9.59,-0.2 0.5,-1.15 0.5,-7.39 -0,-8.53 -1.68,-0.6 -7.33,-0.2 -9.59,-0.2l0.01 -7.75 -8.65 0 0 7.75 -17.58 -0c0.09,-4.93 1.44,-7.08 6.25,-7.45 7.06,-0.54 15.82,-0.33 18.64,-8.77 1.24,-3.72 0.92,-8.24 -0.77,-11.18 -3.4,-5.88 -10.89,-8.14 -20.15,-7.04 -7.7,0.91 -13.44,5.57 -13.51,13.58l10.14 0z"/>
  <path class="fil2" d="M161.02 162.84c13.12,-3.07 14.3,15.32 5.27,17.67 -13,3.39 -15.08,-15.38 -5.27,-17.67zm-6 23.98c2.71,1.9 4.88,3.43 9.31,3.85 4.19,0.39 7.79,-0.51 10.79,-2.21 12.1,-6.87 11.7,-28.37 -1.3,-34.33 -6.42,-2.94 -16.25,-1.48 -19.74,3.27l-0.67 -4.04 -10.17 -0 0 52.49 11.67 -0.02 0.11 -19z"/>
  <path class="fil2" d="M116.32 162.84c13.09,-3.05 14.35,15.33 5.28,17.68 -12.8,3.31 -15.24,-15.35 -5.28,-17.68zm11.99 -5.98c-2.05,0.04 -2.69,-2.92 -9.16,-4.13 -4.18,-0.78 -7.92,0.05 -11.15,1.66 -11.22,5.58 -11.19,21.59 -6.82,28.25 7.4,11.26 21.45,9.46 26.9,3.3l0.85 3.75c0.4,0.24 -0.3,0.03 0.7,0.28 0.57,0.14 -0.07,0.02 0.54,0.1l8.95 -0.07 0 -36.64 -10.28 -0.01 -0.52 3.53z"/>
 </g>
</svg>
