<svg width="94" height="90" viewBox="0 0 94 90" fill="none" xmlns="http://www.w3.org/2000/svg">
<g clip-path="url(#clip0_759_1338)">
<mask id="mask0_759_1338" style="mask-type:luminance" maskUnits="userSpaceOnUse" x="12" y="6" width="71" height="71">
<path d="M36.0845 76.0492L12.7014 29.6528L59.0978 6.26968L82.4809 52.6661L36.0845 76.0492Z" fill="white"/>
</mask>
<g mask="url(#mask0_759_1338)">
<mask id="mask1_759_1338" style="mask-type:luminance" maskUnits="userSpaceOnUse" x="21" y="15" width="53" height="53">
<path fill-rule="evenodd" clip-rule="evenodd" d="M40.1238 58.2158C50.828 62.8359 63.1481 56.6933 65.7627 45.2942C65.9618 44.4247 67.1711 44.3161 67.5558 45.0795C67.6532 45.2726 67.684 45.4995 67.6315 45.7238C64.7347 58.2392 51.1494 65.1209 39.3576 59.9733C38.2302 59.4813 38.9847 57.7241 40.1238 58.2158ZM56.3263 22.798C56.7108 23.561 55.9029 24.4597 55.0846 24.1068C44.3818 19.4871 32.0605 25.6265 29.4457 37.0284C29.1708 38.2271 27.2974 37.8113 27.577 36.5983C30.4556 24.0978 44.0671 17.1307 55.8508 22.3487C56.0654 22.4448 56.2289 22.6048 56.3263 22.798ZM64.897 60.5366C75.736 50.8813 76.3633 34.4053 66.976 23.8672C59.1691 15.1032 46.2524 12.7562 35.9144 17.9664C23.1257 24.4117 17.963 40.0656 24.4086 52.8547C32.1476 68.2105 52.2979 71.7595 64.897 60.5366ZM57.1769 43.6118C60.3102 42.0326 61.7477 38.0468 60.0536 34.8896C58.444 31.6958 54.5318 30.4006 51.3315 32.0135C48.1319 33.626 46.8421 37.5354 48.4548 40.7353C50.5417 44.8762 48.8716 49.9408 44.7307 52.0277C40.8788 53.969 36.2277 52.6588 33.9177 49.1339L31.9259 50.1378C30.8222 50.694 29.9608 48.9844 31.0643 48.4283L33.0561 47.4244C31.5968 43.4703 33.3105 38.9521 37.1624 37.0108C38.2656 36.4548 39.1272 38.1643 38.0239 38.7203C34.813 40.3385 33.5499 44.2471 35.1577 47.4373C36.7631 50.6226 40.6536 51.9395 43.8694 50.3188C47.0691 48.7062 48.3586 44.7967 46.746 41.5969C44.659 37.4559 46.3293 32.3908 50.47 30.3039C54.322 28.3626 58.9727 29.6732 61.2833 33.1983L63.2853 32.1894C63.7587 31.9507 64.3325 32.14 64.5711 32.6134C64.8095 33.0865 64.6203 33.6603 64.1469 33.8989L62.1448 34.9079C63.6037 38.8619 61.8905 43.3799 58.0385 45.3213C56.9352 45.8773 56.0737 44.1678 57.1769 43.6118Z" fill="white"/>
</mask>
<g mask="url(#mask1_759_1338)">
<path d="M37.6555 79.139L86.5015 54.5214L61.5635 5.03959L12.7174 29.6573L37.6555 79.139Z" fill="url(#paint0_linear_759_1338)"/>
</g>
</g>
<mask id="mask2_759_1338" style="mask-type:luminance" maskUnits="userSpaceOnUse" x="3" y="-4" width="90" height="90">
<path d="M32.9419 85.6262L3.14346 26.5006L62.2691 -3.29786L92.0675 55.8278L32.9419 85.6262Z" fill="white"/>
</mask>
<g mask="url(#mask2_759_1338)">
<mask id="mask3_759_1338" style="mask-type:luminance" maskUnits="userSpaceOnUse" x="14" y="8" width="67" height="67">
<path fill-rule="evenodd" clip-rule="evenodd" d="M62.4961 70.7094C78.7901 62.4975 85.3632 42.567 77.1514 26.2732C68.9395 9.97929 49.009 3.4062 32.715 11.6181C16.4212 19.8299 9.84827 39.7604 18.0602 56.0543C26.272 72.3481 46.2023 78.9212 62.4961 70.7094ZM45.0706 68.9303C43.2785 68.7639 41.5096 68.425 39.7899 67.9222C39.3826 69.1578 39.1431 70.9139 37.9263 70.5122C36.7094 70.111 37.5618 68.557 37.969 67.3217C36.2897 66.7035 34.6678 65.9248 33.1297 64.9939C32.4233 66.071 31.7307 67.7168 30.6624 67.0096C29.599 66.306 30.8147 65.0387 31.5293 63.9488C30.0689 62.9218 28.6991 61.7488 27.4446 60.438C26.4854 61.2933 25.3907 62.7025 24.5391 61.7454C23.6871 60.7887 25.2017 59.8703 26.167 59.009C25.0369 57.6506 24.0237 56.1654 23.1464 54.5626C21.9936 55.1436 20.579 56.2175 20.0032 55.0751C19.4272 53.9321 21.1318 53.4342 22.2849 52.8531C21.5186 51.1948 20.9275 49.4968 20.5078 47.78C19.2418 48.0438 17.6019 48.7144 17.3399 47.461C17.0775 46.2065 18.8606 46.1651 20.1193 45.9033C19.8122 44.1175 19.6843 42.3211 19.7271 40.539C18.4532 40.4666 16.6786 40.6881 16.7489 39.4148C16.8191 38.1354 18.5562 38.5575 19.8388 38.6308C20.005 36.8374 20.3442 35.0685 20.8469 33.3482C19.6067 32.9392 17.8555 32.7015 18.2569 31.4845C18.658 30.2675 20.2121 31.12 21.4475 31.5273C22.0667 29.8452 22.8473 28.2215 23.7797 26.6813C22.6994 25.9729 21.0553 25.2809 21.7621 24.2127C22.4661 23.1497 23.734 24.3657 24.8251 25.0811C25.8499 23.6244 27.02 22.2579 28.3272 21.0062C27.4688 20.0432 26.0622 18.9512 27.019 18.0995C27.9761 17.2478 28.8944 18.7621 29.7562 19.7284C31.1151 18.5968 32.6024 17.5824 34.2069 16.7047C33.6291 15.5581 32.5543 14.1418 33.6969 13.5664C34.8399 12.9904 35.3383 14.696 35.9164 15.8432C37.5755 15.076 39.2748 14.4845 40.992 14.065C40.7317 12.8127 40.0601 11.17 41.3133 10.9078C42.5537 10.6485 42.5917 12.3456 42.8689 13.6767C44.6548 13.3696 46.451 13.2418 48.2334 13.2849C48.3065 12.0021 48.0837 10.2461 49.3569 10.3115C50.6246 10.3758 50.2206 12.0106 50.1413 13.3969C51.9321 13.5632 53.6994 13.9017 55.4175 14.4038C55.8256 13.1664 56.0654 11.4085 57.2823 11.8099C58.4877 12.2074 57.6675 13.7027 57.2384 15.0043C58.9217 15.6237 60.5473 16.4042 62.0882 17.3377C62.7982 16.2546 63.4882 14.6142 64.5568 15.3203C65.6207 16.0232 64.4168 17.2722 63.6883 18.3832C65.1444 19.4069 66.5098 20.5771 67.761 21.8831C68.7136 21.0337 69.8082 19.6248 70.6601 20.5824C71.5118 21.5392 70.0168 22.4395 69.0392 23.3116C70.1717 24.6715 71.1864 26.1592 72.0646 27.7648C73.2118 27.1867 74.627 26.1122 75.2031 27.2552C75.7789 28.3976 74.0728 28.8965 72.9262 29.4744C73.6942 31.1353 74.2862 32.8364 74.7059 34.5554C76.0128 34.2834 77.6016 33.6225 77.8641 34.8765C78.1267 36.1303 76.3434 36.1719 75.0936 36.4324C75.4005 38.218 75.5274 40.0138 75.4842 41.7959C76.7632 41.8686 77.9954 41.7068 78.3618 42.4338C78.6795 43.0642 78.1822 43.8634 77.4544 43.8224L75.3719 43.7042C75.2053 45.4947 74.8666 47.2613 74.3643 48.9793C74.9942 49.187 76.5999 49.5187 76.8988 50.1118C77.2663 50.8409 76.5532 51.7202 75.7438 51.4528L73.7638 50.8001C73.1457 52.4806 72.3659 54.1031 71.4341 55.642C71.9094 55.9535 73.2678 56.6784 73.5075 57.154C73.9271 57.9866 72.9469 58.9232 72.1306 58.3837L70.3891 57.2423C69.3637 58.7011 68.1913 60.0691 66.8819 61.323C67.2502 61.7361 68.1828 62.6397 68.4026 63.0759C68.8843 64.0317 67.5619 64.9652 66.8293 64.1429L65.4531 62.6004C64.0951 63.7315 62.6081 64.7453 61.0047 65.6229C61.5858 66.7759 62.6598 68.1901 61.5168 68.7662C60.3743 69.342 59.8762 67.6373 59.2952 66.4845C57.635 67.2517 55.9347 67.8435 54.2168 68.2627C54.4803 69.5293 55.152 71.1697 53.8979 71.432C52.6441 71.6941 52.603 69.9142 52.3396 68.6512C50.5551 68.9578 48.7598 69.0852 46.9785 69.0422C46.9057 70.3286 47.1275 72.0984 45.8543 72.0284C44.5747 71.9578 44.9972 70.2211 45.0706 68.9303Z" fill="white"/>
</mask>
<g mask="url(#mask3_759_1338)">
<path d="M32.9507 85.5999L92.0419 55.8188L62.2608 -3.27251L3.16956 26.5086L32.9507 85.5999Z" fill="url(#paint1_linear_759_1338)"/>
</g>
</g>
<mask id="mask4_759_1338" style="mask-type:luminance" maskUnits="userSpaceOnUse" x="-1" y="-5" width="96" height="96">
<path d="M31.4971 90.007L-0.00700178 27.497L62.5029 -4.00705L94.007 58.5029L31.4971 90.007Z" fill="white"/>
</mask>
<g mask="url(#mask4_759_1338)">
<path fill-rule="evenodd" clip-rule="evenodd" d="M66.95 46.9157C67.0474 47.109 67.0788 47.3356 67.0258 47.5603C64.129 60.0758 50.5437 66.9572 38.7518 61.81C37.6245 61.3179 38.379 59.5601 39.5182 60.0518C50.2225 64.6723 62.5429 58.5297 65.1569 47.1303C65.3568 46.2609 66.5654 46.1527 66.95 46.9157ZM55.7207 24.6347C56.1052 25.3977 55.2973 26.2965 54.4788 25.9431C43.7766 21.3234 31.4548 27.463 28.8402 38.8646C28.5652 40.0636 26.692 39.6477 26.9711 38.435C29.8499 25.9336 43.4615 18.9672 55.2451 24.1853C55.4598 24.2813 55.6232 24.4413 55.7207 24.6347ZM23.8032 54.6909C31.5423 70.0466 51.6924 73.5957 64.2913 62.3729C75.1302 52.7179 75.7581 36.2417 66.3704 25.7037C58.5639 16.9396 45.6468 14.5927 35.3089 19.8028C22.5201 26.2482 17.3578 41.9019 23.8032 54.6909ZM72.3209 31.3103C73.4674 30.7324 75.173 30.2341 74.5972 29.0915C74.0213 27.9487 72.606 29.0232 71.4595 29.601C70.5806 27.9956 69.5659 26.5081 68.4333 25.1482C69.4111 24.2759 70.9061 23.3757 70.054 22.4182C69.2024 21.4614 68.1081 22.8701 67.1559 23.7195C65.9044 22.4133 64.5387 21.2434 63.0831 20.2194C63.811 19.1088 65.0149 17.8597 63.9511 17.1568C62.8823 16.4503 62.1928 18.0909 61.4828 19.174C59.9415 18.2407 58.3163 17.4593 56.6327 16.8408C57.0618 15.5392 57.8818 14.0438 56.6766 13.6463C55.4594 13.2444 55.2197 15.0025 54.8118 16.2403C53.0934 15.7383 51.3264 15.3997 49.5355 15.2333C49.6147 13.8465 50.0189 12.2125 48.7517 12.1477C47.478 12.0826 47.7007 13.8386 47.6276 15.1214C45.8458 15.078 44.0494 15.2061 42.2637 15.5129C41.986 14.182 41.948 12.4849 40.7082 12.7441C39.4541 13.0061 40.1259 14.6492 40.3866 15.9012C38.6696 16.3208 36.9697 16.9125 35.3103 17.679C34.7325 16.5325 34.2341 14.8269 33.0912 15.4025C31.9486 15.9783 33.0235 17.3944 33.6011 18.5405C31.997 19.4187 30.5094 20.4333 29.1504 21.5648C28.2887 20.5986 27.3701 19.0836 26.4134 19.9358C25.4566 20.7876 26.863 21.8797 27.7218 22.8425C26.4143 24.0944 25.244 25.4606 24.2195 26.9175C23.1285 26.202 21.8602 24.9854 21.1566 26.049C20.4494 27.1174 22.0939 27.8093 23.1739 28.5172C22.2414 30.0582 21.461 31.6812 20.8421 33.3636C19.6066 32.9559 18.0526 32.1037 17.6513 33.3209C17.2499 34.5378 19.0009 34.7756 20.2416 35.1845C19.7387 36.9049 19.3992 38.6739 19.2333 40.4671C17.9505 40.394 16.2134 39.9719 16.1428 41.2507C16.0728 42.5246 17.8472 42.3025 19.1216 42.3749C19.0788 44.1575 19.2062 45.9536 19.5134 47.7391C18.2552 48.0013 16.4719 48.0429 16.7339 49.2969C16.9962 50.5509 18.6364 49.8801 19.9021 49.6159C20.3215 51.3326 20.9126 53.0307 21.6793 54.6895C20.5261 55.2707 18.8219 55.7684 19.3978 56.9111C19.9736 58.0538 21.3881 56.9797 22.5407 56.3987C23.4178 58.0015 24.4312 59.4872 25.5615 60.8453C24.596 61.7065 23.0814 62.6249 23.9332 63.5816C24.7853 64.5386 25.8795 63.1295 26.8388 62.2741C28.0935 63.5852 29.4635 64.7581 30.9238 65.7848C30.2092 66.8748 28.9936 68.1421 30.0567 68.8457C31.1253 69.5532 31.8178 67.9074 32.5242 66.8299C34.0624 67.7608 35.6838 68.5397 37.3636 69.1577C36.9561 70.3934 36.1038 71.9474 37.3207 72.3487C38.5376 72.7499 38.7771 70.9938 39.1845 69.7584C40.9041 70.2614 42.6727 70.6001 44.4649 70.7668C44.3915 72.0572 43.9691 73.7942 45.2486 73.8645C46.5218 73.9346 46.2999 72.1648 46.3731 70.8785C48.1542 70.9215 49.9492 70.794 51.7342 70.4875C51.9972 71.7507 52.0384 73.5303 53.2923 73.2684C54.5462 73.0062 53.875 71.3657 53.611 70.0991C55.3293 69.6796 57.0295 69.0877 58.6895 68.3206C59.2705 69.4734 59.7685 71.1782 60.9111 70.6023C62.0538 70.0264 60.98 68.6124 60.3988 67.4592C62.0023 66.5818 63.4893 65.5677 64.8478 64.4366L66.2235 65.9794C66.956 66.8014 68.279 65.8676 67.7974 64.9118C67.5775 64.4756 66.6449 63.572 66.2766 63.159C67.5853 61.9057 68.758 60.5375 69.7833 59.0785L71.5248 60.2202C72.3412 60.7598 73.3212 59.8229 72.9016 58.9903C72.6619 58.5146 71.3036 57.79 70.8288 57.4779C71.7602 55.9395 72.5398 54.3168 73.1579 52.6363L75.1381 53.2893C75.9478 53.5561 76.6605 52.6774 76.293 51.9482C75.994 51.3549 74.3883 51.0232 73.7585 50.8155C74.2608 49.0977 74.6001 47.3306 74.7667 45.5401L76.8487 45.6589C77.5767 45.6994 78.0743 44.9004 77.7565 44.2699C77.3901 43.5429 76.1574 43.705 74.8784 43.6323C74.9222 41.8499 74.7947 40.0542 74.4884 38.2686C75.7376 38.0083 77.5208 37.9666 77.2582 36.7128C76.9959 35.4589 75.4069 36.1196 74.0999 36.3918C73.6802 34.6725 73.0885 32.9717 72.3209 31.3103ZM17.4544 57.8906C25.6661 74.1843 45.5965 80.7577 61.8905 72.5457C78.1844 64.3339 84.758 44.4032 76.5461 28.1093C68.3343 11.8155 48.4035 5.24185 32.1092 13.4539C15.8156 21.6657 9.24253 41.5968 17.4544 57.8906ZM78.255 27.248C69.5688 10.0128 48.483 3.05876 31.2479 11.745C14.0131 20.4311 7.05881 41.5169 15.7451 58.7521C24.4312 75.9869 45.5172 82.941 62.752 74.255C79.9871 65.5687 86.9411 44.4828 78.255 27.248ZM63.9654 34.4498C64.2038 34.9228 64.0146 35.4965 63.5417 35.7348L61.539 36.7442C62.9986 40.6982 61.2847 45.216 57.4327 47.1574C56.3298 47.7132 55.4685 46.0042 56.5713 45.4483C59.7046 43.8692 61.142 39.883 59.4481 36.7264L59.4481 36.7262C57.8381 33.5318 53.926 32.2367 50.7257 33.8496C47.526 35.4622 46.2368 39.3718 47.8495 42.5717C49.9363 46.7124 48.2659 51.7773 44.125 53.8643C40.2732 55.8055 35.6224 54.4951 33.3122 50.9701L31.3201 51.974C30.2167 52.5302 29.3554 50.8209 30.4587 50.2648L32.4508 49.2609C30.9911 45.3069 32.7049 40.7887 36.5567 38.8474C37.66 38.2913 38.5216 40.0008 37.4183 40.5568C34.2078 42.1748 32.9442 46.083 34.5522 49.2736C36.1575 52.4588 40.0483 53.7757 43.2637 52.1552C46.4638 50.5424 47.753 46.6328 46.1405 43.4332C44.0535 39.2924 45.7237 34.2274 49.8644 32.1405C53.7164 30.1991 58.3676 31.5095 60.6776 35.035L62.6803 34.0256C63.1532 33.7873 63.7269 33.9765 63.9654 34.4498Z" fill="#360B4B"/>
</g>
</g>
<defs>
<linearGradient id="paint0_linear_759_1338" x1="60.8454" y1="67.4516" x2="35.9074" y2="17.9699" gradientUnits="userSpaceOnUse">
<stop stop-color="#6A5BA8"/>
<stop offset="0.125" stop-color="#6A5BA8"/>
<stop offset="0.132812" stop-color="#6A5CA8"/>
<stop offset="0.140625" stop-color="#695CA9"/>
<stop offset="0.148437" stop-color="#695DA9"/>
<stop offset="0.15625" stop-color="#695DA9"/>
<stop offset="0.164062" stop-color="#685EAA"/>
<stop offset="0.171875" stop-color="#685EAA"/>
<stop offset="0.179687" stop-color="#675FAB"/>
<stop offset="0.1875" stop-color="#675FAB"/>
<stop offset="0.195312" stop-color="#6760AB"/>
<stop offset="0.203125" stop-color="#6660AC"/>
<stop offset="0.210937" stop-color="#6661AC"/>
<stop offset="0.21875" stop-color="#6661AC"/>
<stop offset="0.226562" stop-color="#6562AD"/>
<stop offset="0.234375" stop-color="#6562AD"/>
<stop offset="0.242187" stop-color="#6463AD"/>
<stop offset="0.25" stop-color="#6463AE"/>
<stop offset="0.257812" stop-color="#6464AE"/>
<stop offset="0.265625" stop-color="#6364AF"/>
<stop offset="0.273438" stop-color="#6365AF"/>
<stop offset="0.28125" stop-color="#6365AF"/>
<stop offset="0.289062" stop-color="#6266B0"/>
<stop offset="0.296875" stop-color="#6266B0"/>
<stop offset="0.304688" stop-color="#6167B0"/>
<stop offset="0.3125" stop-color="#6167B1"/>
<stop offset="0.320312" stop-color="#6168B1"/>
<stop offset="0.328125" stop-color="#6068B1"/>
<stop offset="0.335938" stop-color="#6069B2"/>
<stop offset="0.34375" stop-color="#6069B2"/>
<stop offset="0.351562" stop-color="#5F6AB3"/>
<stop offset="0.359375" stop-color="#5F6AB3"/>
<stop offset="0.367188" stop-color="#5E6BB3"/>
<stop offset="0.375" stop-color="#5E6BB4"/>
<stop offset="0.382812" stop-color="#5E6CB4"/>
<stop offset="0.390625" stop-color="#5D6DB4"/>
<stop offset="0.398437" stop-color="#5D6DB5"/>
<stop offset="0.40625" stop-color="#5D6EB5"/>
<stop offset="0.414062" stop-color="#5C6EB5"/>
<stop offset="0.421875" stop-color="#5C6FB6"/>
<stop offset="0.429687" stop-color="#5B6FB6"/>
<stop offset="0.4375" stop-color="#5B70B7"/>
<stop offset="0.445312" stop-color="#5B70B7"/>
<stop offset="0.453125" stop-color="#5A71B7"/>
<stop offset="0.460937" stop-color="#5A71B8"/>
<stop offset="0.46875" stop-color="#5A72B8"/>
<stop offset="0.476562" stop-color="#5972B8"/>
<stop offset="0.484375" stop-color="#5973B9"/>
<stop offset="0.492187" stop-color="#5873B9"/>
<stop offset="0.5" stop-color="#5874B9"/>
<stop offset="0.507812" stop-color="#5874BA"/>
<stop offset="0.515625" stop-color="#5775BA"/>
<stop offset="0.523438" stop-color="#5775BB"/>
<stop offset="0.53125" stop-color="#5776BB"/>
<stop offset="0.539062" stop-color="#5676BB"/>
<stop offset="0.546875" stop-color="#5677BC"/>
<stop offset="0.554687" stop-color="#5577BC"/>
<stop offset="0.5625" stop-color="#5578BC"/>
<stop offset="0.570312" stop-color="#5578BD"/>
<stop offset="0.578125" stop-color="#5479BD"/>
<stop offset="0.585938" stop-color="#5479BD"/>
<stop offset="0.59375" stop-color="#547ABE"/>
<stop offset="0.601563" stop-color="#537ABE"/>
<stop offset="0.609375" stop-color="#537BBF"/>
<stop offset="0.617187" stop-color="#527BBF"/>
<stop offset="0.625" stop-color="#527CBF"/>
<stop offset="0.632812" stop-color="#527DC0"/>
<stop offset="0.640625" stop-color="#517DC0"/>
<stop offset="0.648438" stop-color="#517EC0"/>
<stop offset="0.65625" stop-color="#517EC1"/>
<stop offset="0.664063" stop-color="#507FC1"/>
<stop offset="0.671875" stop-color="#507FC2"/>
<stop offset="0.679688" stop-color="#4F80C2"/>
<stop offset="0.6875" stop-color="#4F80C2"/>
<stop offset="0.695312" stop-color="#4F81C3"/>
<stop offset="0.703125" stop-color="#4E81C3"/>
<stop offset="0.710938" stop-color="#4E82C3"/>
<stop offset="0.71875" stop-color="#4E82C4"/>
<stop offset="0.726562" stop-color="#4D83C4"/>
<stop offset="0.734375" stop-color="#4D83C4"/>
<stop offset="0.742188" stop-color="#4D84C5"/>
<stop offset="0.75" stop-color="#4C84C5"/>
<stop offset="0.757812" stop-color="#4C85C6"/>
<stop offset="0.765625" stop-color="#4B85C6"/>
<stop offset="0.773437" stop-color="#4B86C6"/>
<stop offset="0.78125" stop-color="#4B86C7"/>
<stop offset="0.789062" stop-color="#4A87C7"/>
<stop offset="0.796875" stop-color="#4A87C7"/>
<stop offset="0.804688" stop-color="#4A88C8"/>
<stop offset="0.8125" stop-color="#4988C8"/>
<stop offset="0.820312" stop-color="#4989C8"/>
<stop offset="0.828125" stop-color="#4889C9"/>
<stop offset="0.835937" stop-color="#488AC9"/>
<stop offset="0.84375" stop-color="#488ACA"/>
<stop offset="0.851562" stop-color="#478BCA"/>
<stop offset="0.859375" stop-color="#478BCA"/>
<stop offset="0.867187" stop-color="#478CCB"/>
<stop offset="0.875" stop-color="#468CCB"/>
<stop offset="0.882812" stop-color="#468DCB"/>
<stop offset="0.890625" stop-color="#458ECC"/>
<stop offset="0.898437" stop-color="#458ECC"/>
<stop offset="0.90625" stop-color="#458FCC"/>
<stop offset="0.914062" stop-color="#448FCD"/>
<stop offset="0.921875" stop-color="#4490CD"/>
<stop offset="0.929687" stop-color="#4490CE"/>
<stop offset="0.9375" stop-color="#4391CE"/>
<stop offset="0.945312" stop-color="#4391CE"/>
<stop offset="0.953125" stop-color="#4292CF"/>
<stop offset="0.960938" stop-color="#4292CF"/>
<stop offset="0.96875" stop-color="#4293CF"/>
<stop offset="0.976562" stop-color="#4193D0"/>
<stop offset="0.984375" stop-color="#4194D0"/>
<stop offset="0.992187" stop-color="#4194D0"/>
<stop offset="1" stop-color="#4095D1"/>
</linearGradient>
<linearGradient id="paint1_linear_759_1338" x1="62.4963" y1="70.7093" x2="32.7152" y2="11.618" gradientUnits="userSpaceOnUse">
<stop stop-color="#6A5BA8"/>
<stop offset="0.015625" stop-color="#6A5BA8"/>
<stop offset="0.03125" stop-color="#695CA9"/>
<stop offset="0.046875" stop-color="#685DAA"/>
<stop offset="0.0625" stop-color="#685EAA"/>
<stop offset="0.078125" stop-color="#675FAB"/>
<stop offset="0.09375" stop-color="#6660AC"/>
<stop offset="0.109375" stop-color="#6661AC"/>
<stop offset="0.125" stop-color="#6562AD"/>
<stop offset="0.140625" stop-color="#6463AD"/>
<stop offset="0.15625" stop-color="#6464AE"/>
<stop offset="0.171875" stop-color="#6365AF"/>
<stop offset="0.1875" stop-color="#6265AF"/>
<stop offset="0.203125" stop-color="#6266B0"/>
<stop offset="0.21875" stop-color="#6167B1"/>
<stop offset="0.234375" stop-color="#6068B1"/>
<stop offset="0.25" stop-color="#6069B2"/>
<stop offset="0.265625" stop-color="#5F6AB3"/>
<stop offset="0.28125" stop-color="#5F6BB3"/>
<stop offset="0.296875" stop-color="#5E6CB4"/>
<stop offset="0.3125" stop-color="#5D6DB4"/>
<stop offset="0.328125" stop-color="#5D6EB5"/>
<stop offset="0.34375" stop-color="#5C6EB6"/>
<stop offset="0.359375" stop-color="#5B6FB6"/>
<stop offset="0.375" stop-color="#5B70B7"/>
<stop offset="0.390625" stop-color="#5A71B8"/>
<stop offset="0.40625" stop-color="#5972B8"/>
<stop offset="0.421875" stop-color="#5973B9"/>
<stop offset="0.4375" stop-color="#5874BA"/>
<stop offset="0.453125" stop-color="#5775BA"/>
<stop offset="0.46875" stop-color="#5776BB"/>
<stop offset="0.484375" stop-color="#5677BC"/>
<stop offset="0.5" stop-color="#5578BC"/>
<stop offset="0.515625" stop-color="#5578BD"/>
<stop offset="0.53125" stop-color="#5479BD"/>
<stop offset="0.546875" stop-color="#537ABE"/>
<stop offset="0.5625" stop-color="#537BBF"/>
<stop offset="0.578125" stop-color="#527CBF"/>
<stop offset="0.59375" stop-color="#517DC0"/>
<stop offset="0.609375" stop-color="#517EC1"/>
<stop offset="0.625" stop-color="#507FC1"/>
<stop offset="0.640625" stop-color="#4F80C2"/>
<stop offset="0.65625" stop-color="#4F81C3"/>
<stop offset="0.671875" stop-color="#4E82C3"/>
<stop offset="0.6875" stop-color="#4D82C4"/>
<stop offset="0.703125" stop-color="#4D83C5"/>
<stop offset="0.71875" stop-color="#4C84C5"/>
<stop offset="0.734375" stop-color="#4B85C6"/>
<stop offset="0.75" stop-color="#4B86C6"/>
<stop offset="0.765625" stop-color="#4A87C7"/>
<stop offset="0.78125" stop-color="#4A88C8"/>
<stop offset="0.796875" stop-color="#4989C8"/>
<stop offset="0.8125" stop-color="#488AC9"/>
<stop offset="0.828125" stop-color="#488BCA"/>
<stop offset="0.84375" stop-color="#478BCA"/>
<stop offset="0.859375" stop-color="#468CCB"/>
<stop offset="0.875" stop-color="#468DCC"/>
<stop offset="0.890625" stop-color="#458ECC"/>
<stop offset="0.90625" stop-color="#448FCD"/>
<stop offset="0.921875" stop-color="#4490CD"/>
<stop offset="0.9375" stop-color="#4391CE"/>
<stop offset="0.953125" stop-color="#4292CF"/>
<stop offset="0.96875" stop-color="#4293CF"/>
<stop offset="0.984375" stop-color="#4194D0"/>
<stop offset="1" stop-color="#4095D1"/>
</linearGradient>
<clipPath id="clip0_759_1338">
<rect width="70" height="70" fill="white" transform="translate(31.4971 90.007) rotate(-116.747)"/>
</clipPath>
</defs>
</svg>
