<svg width="327" height="240" viewBox="0 0 327 240" fill="none" xmlns="http://www.w3.org/2000/svg">
<rect width="327" height="240" fill="white"/>
<path d="M110.234 227.704C114.343 224.218 116.839 218.711 116.185 213.35C115.53 207.989 111.476 203.06 106.216 201.922C100.957 200.783 94.9613 203.935 93.3639 209.092C92.4847 199.149 91.4717 188.788 86.2054 180.32C81.437 172.652 73.1779 167.165 64.2269 166.184C55.276 165.202 45.8518 168.91 40.2694 176.002C34.687 183.095 33.3202 193.406 37.23 201.548C40.1101 207.547 45.4164 212.011 50.9761 215.643C68.9415 227.279 90.4886 232.012 111.653 228.969" fill="#F2F2F2"/>
<path d="M49.1208 169.115C56.5064 175.154 63.282 181.909 69.3494 189.28C78.845 200.778 86.5289 213.669 92.1334 227.504C92.5437 228.513 90.9112 228.952 90.5055 227.954C86.9414 219.207 82.5319 210.831 77.3404 202.948C69.2446 190.632 59.3263 179.628 47.927 170.313C47.0842 169.624 48.2849 168.432 49.1208 169.115V169.115Z" fill="white"/>
<path d="M113.072 227.704C108.963 224.218 106.466 218.711 107.121 213.35C107.776 207.989 111.83 203.06 117.09 201.922C122.349 200.783 128.344 203.935 129.942 209.092C130.821 199.149 131.834 188.788 137.1 180.32C141.869 172.652 150.128 167.165 159.079 166.184C168.03 165.202 177.454 168.91 183.036 176.002C188.619 183.095 189.986 193.406 186.076 201.548C183.196 207.547 177.889 212.011 172.33 215.643C154.364 227.279 132.817 232.012 111.653 228.969" fill="#F2F2F2"/>
<path d="M174.185 169.115C166.799 175.154 160.024 181.909 153.956 189.28C144.461 200.778 136.777 213.669 131.172 227.504C130.762 228.513 132.395 228.952 132.8 227.954C141.97 205.469 156.609 185.652 175.379 170.313C176.222 169.624 175.021 168.432 174.185 169.115V169.115Z" fill="white"/>
<path d="M125.267 108.966C132.87 108.966 139.033 102.779 139.033 95.1468C139.033 87.5144 132.87 81.3271 125.267 81.3271C117.665 81.3271 111.501 87.5144 111.501 95.1468C111.501 102.779 117.665 108.966 125.267 108.966Z" fill="#F2F2F2"/>
<path d="M82.8233 47.5083H177.666V52.7176H94.9308C90.0663 52.7175 85.2494 53.6794 80.7552 55.5483C76.2609 57.4171 72.1773 60.1563 68.7376 63.6095C65.2978 67.0627 62.5693 71.1622 60.7077 75.674C58.8461 80.1858 57.888 85.0215 57.888 89.9051V149.088H47.51C47.0513 149.088 46.6114 148.905 46.287 148.58C45.9626 148.254 45.7804 147.812 45.7804 147.352V84.6958C45.7804 79.8123 46.7385 74.9765 48.6001 70.4647C50.4617 65.9529 53.1903 61.8534 56.63 58.4002C60.0698 54.9471 64.1533 52.2078 68.6476 50.339C73.1418 48.4702 77.9588 47.5083 82.8233 47.5083Z" fill="#F2F2F2"/>
<path d="M101.066 227.994V148.865H124.157V227.994C124.156 228.526 123.946 229.036 123.571 229.412C123.197 229.788 122.689 229.999 122.159 230H103.064C102.534 229.999 102.026 229.788 101.652 229.412C101.277 229.036 101.067 228.526 101.066 227.994Z" fill="#111111"/>
<path d="M40.8958 147.305V82.9617C40.9073 72.7186 44.9656 62.8984 52.1804 55.6554C59.3951 48.4124 69.1771 44.3383 79.3804 44.3267H177.222V149.534H43.1161C42.5274 149.534 41.9631 149.299 41.5468 148.881C41.1306 148.463 40.8964 147.896 40.8958 147.305ZM176.334 45.2183H79.3804C69.4126 45.2296 59.8563 49.2098 52.8081 56.2856C45.7598 63.3614 41.7951 72.955 41.7839 82.9617V147.305C41.7843 147.66 41.9247 148 42.1745 148.251C42.4242 148.501 42.7629 148.642 43.1161 148.643H176.334V45.2183Z" fill="#111111"/>
<path d="M125.267 102.28C123.148 102.277 121.116 101.431 119.618 99.9267C118.119 98.4223 117.276 96.3827 117.274 94.2553V36.7477C117.274 36.3931 117.133 36.0532 116.883 35.8025C116.634 35.5517 116.295 35.4107 115.942 35.4103H84.8576C84.269 35.4096 83.7046 35.1746 83.2884 34.7567C82.8722 34.3388 82.638 33.7723 82.6373 33.1813V12.229C82.638 11.638 82.8722 11.0715 83.2884 10.6536C83.7046 10.2357 84.269 10.0007 84.8576 10H131.04C131.629 10.0007 132.193 10.2357 132.609 10.6536C133.025 11.0715 133.26 11.638 133.26 12.229V94.2553C133.258 96.3827 132.415 98.4223 130.916 99.9267C129.418 101.431 127.386 102.277 125.267 102.28Z" fill="#131E91"/>
<path d="M180.775 43.4346C187.474 43.4205 193.904 46.0786 198.651 50.824C203.398 55.5694 206.072 62.0135 206.086 68.7386V141.987H255.821C257.819 141.983 259.737 142.776 261.152 144.191C262.568 145.606 263.366 147.528 263.37 149.534H155.463V68.7386C155.477 62.0135 158.152 55.5694 162.899 50.824C167.646 46.0786 174.076 43.4205 180.775 43.4346Z" fill="#111111"/>
<path d="M174.701 85.1469L179.942 106.882L282.467 81.9659L277.226 60.2307C277.163 59.965 277.034 59.7196 276.851 59.5173C276.668 59.3151 276.437 59.1625 276.179 59.0739C275.989 59.0067 275.788 58.9764 275.587 58.9843L216.323 28.1791C215.975 28.001 215.576 27.9535 215.197 28.045C214.818 28.1365 214.484 28.361 214.255 28.678L185.693 68.663L174.926 83.7411C174.906 83.7675 174.892 83.7978 174.886 83.83C174.879 83.8622 174.879 83.8954 174.886 83.9275C174.667 84.2937 174.6 84.7318 174.701 85.1469Z" fill="white"/>
<path d="M174.886 83.9275C174.891 83.9558 174.902 83.9828 174.917 84.007C174.933 84.0311 174.953 84.052 174.976 84.0683C175.004 84.0875 175.036 84.1007 175.069 84.1073C175.102 84.1138 175.136 84.1135 175.169 84.1065C175.222 84.0921 175.269 84.0595 175.301 84.0141L175.338 83.9626L175.899 83.1756L186.081 68.926L214.634 28.9502C214.797 28.7237 215.036 28.5633 215.306 28.4981C215.577 28.433 215.862 28.4675 216.109 28.5952L274.914 59.1619L275.442 59.4369C275.463 59.4459 275.485 59.4535 275.507 59.4599C275.547 59.4526 275.588 59.4487 275.628 59.4483C275.683 59.4298 275.729 59.3907 275.757 59.3392C275.771 59.312 275.78 59.2823 275.783 59.2518C275.786 59.2212 275.782 59.1903 275.773 59.161C275.764 59.1317 275.75 59.1044 275.73 59.0807C275.711 59.0571 275.687 59.0376 275.66 59.0233L275.587 58.9844L216.323 28.1791C215.975 28.001 215.576 27.9535 215.197 28.045C214.818 28.1365 214.484 28.361 214.255 28.678L185.693 68.663L174.926 83.7411C174.906 83.7675 174.892 83.7978 174.886 83.83C174.879 83.8622 174.879 83.8954 174.886 83.9275Z" fill="#111111"/>
<path d="M205.678 86.1436L207.96 86.3977L224.898 88.2813L236.126 89.5293L236.789 89.6033L250.8 78.6168L251.337 78.1959L254.646 75.6013L266.42 66.3706L266.491 65.7222L270.678 27.7787C270.735 27.2563 270.584 26.7324 270.257 26.3219C269.93 25.9115 269.454 25.648 268.934 25.5892L213.046 19.3741C212.526 19.317 212.004 19.4693 211.595 19.7976C211.186 20.1259 210.924 20.6035 210.865 21.1257L207.912 47.8901L206.274 62.7288L204.808 76.0038L204.129 82.1688L203.931 83.9546C203.874 84.4773 204.026 85.0011 204.354 85.4114C204.681 85.8217 205.157 86.085 205.678 86.1436Z" fill="#E6E6E6"/>
<path d="M221.036 52.8841L245.244 55.5759L253.83 56.5302C254.209 56.5723 254.592 56.5391 254.958 56.4324C255.325 56.3257 255.666 56.1477 255.964 55.9084C256.262 55.6691 256.51 55.3733 256.694 55.0379C256.877 54.7025 256.994 54.334 257.036 53.9535C257.078 53.5729 257.044 53.1878 256.938 52.8202C256.832 52.4525 256.655 52.1094 256.416 51.8105C256.178 51.5116 255.883 51.2628 255.549 51.0783C255.215 50.8937 254.848 50.777 254.469 50.7349L243.791 49.5476L221.677 47.086C220.911 47.0011 220.143 47.2249 219.542 47.7082C218.94 48.1915 218.555 48.8948 218.47 49.6634C218.385 50.432 218.607 51.2031 219.089 51.807C219.57 52.411 220.27 52.7984 221.036 52.8841Z" fill="white"/>
<path d="M219.657 63.6349C219.72 63.6461 219.782 63.6573 219.846 63.6634L247.948 66.7889L252.64 67.3117C253.406 67.3968 254.174 67.1729 254.776 66.6894C255.377 66.2059 255.762 65.5024 255.847 64.7336C255.932 63.9648 255.709 63.1937 255.227 62.5899C254.746 61.9862 254.045 61.5992 253.279 61.5142L246.495 60.7606L224.234 58.2843L220.487 57.8676C219.738 57.7837 218.986 57.9956 218.39 58.4584C217.793 58.9213 217.399 59.5988 217.292 60.3478C217.184 61.0968 217.37 61.8585 217.812 62.4719C218.253 63.0854 218.915 63.5024 219.657 63.6348V63.6349Z" fill="white"/>
<path d="M216.477 73.1681C216.707 73.5519 217.022 73.8773 217.398 74.1189C217.774 74.3605 218.2 74.5119 218.644 74.5613L230.162 75.842L250.677 78.1236L250.681 78.1225L251.337 78.1959L254.646 75.6013C254.667 75.4042 254.667 75.2055 254.647 75.0084C254.577 74.3465 254.284 73.7284 253.817 73.2563C253.35 72.7842 252.736 72.4864 252.077 72.4121L249.227 72.0943L237.923 70.8384L229.789 69.9328L219.283 68.7638C218.744 68.704 218.2 68.7965 217.711 69.031C217.222 69.2655 216.808 69.6326 216.517 70.0907C216.225 70.5489 216.066 71.0798 216.059 71.6237C216.052 72.1675 216.197 72.7024 216.477 73.168L216.477 73.1681Z" fill="white"/>
<path d="M232.655 39.7434L238.678 40.4131L241.339 40.7097L245.358 41.1562C246.124 41.2413 246.892 41.0174 247.493 40.5339C248.094 40.0505 248.48 39.3469 248.565 38.5781C248.649 37.8093 248.426 37.0382 247.945 36.4344C247.463 35.8307 246.762 35.4437 245.997 35.3587L233.297 33.9475C232.531 33.8621 231.763 34.0855 231.162 34.5686C230.56 35.0516 230.174 35.7548 230.089 36.5234C230.004 37.2919 230.227 38.063 230.708 38.6669C231.189 39.2707 231.889 39.658 232.655 39.7434V39.7434Z" fill="white"/>
<path d="M183.402 55.8864L190.746 86.3404L203.002 88.68L214.34 90.847L226.504 93.1706L230.391 93.9132C230.619 93.9563 230.853 93.9504 231.078 93.8957C231.303 93.841 231.514 93.7388 231.697 93.5959L234.815 91.151L236.789 89.6032L250.8 78.6167L241.891 41.672C241.803 41.3045 241.612 40.9702 241.339 40.7095C241.1 40.4788 240.807 40.3123 240.487 40.2252C240.166 40.1382 239.83 40.1334 239.507 40.2115L184.857 53.4929C184.348 53.6169 183.909 53.9386 183.636 54.3874C183.363 54.8362 183.279 55.3753 183.402 55.8864Z" fill="#131E91"/>
<path d="M200.241 80.1138C200.423 80.8651 200.894 81.5132 201.551 81.9159C202.209 82.3185 202.999 82.4429 203.747 82.2617L235.815 74.4684C236.563 74.2855 237.208 73.8123 237.609 73.1524C238.01 72.4926 238.134 71.7001 237.954 70.9485C237.946 70.9113 237.936 70.8745 237.923 70.8386C237.718 70.114 237.242 69.4971 236.594 69.1172C235.946 68.7373 235.177 68.6239 234.448 68.8007L202.38 76.5939C201.632 76.7765 200.987 77.2496 200.585 77.9096C200.184 78.5695 200.06 79.3623 200.241 80.1138Z" fill="white"/>
<path d="M203.002 88.6801L214.34 90.847L238.357 85.0104C239.105 84.8284 239.751 84.3554 240.153 83.6952C240.554 83.0351 240.677 82.242 240.496 81.4905C240.315 80.7389 239.844 80.0903 239.186 79.6875C238.529 79.2847 237.739 79.1607 236.99 79.3426L204.923 87.1358C204.252 87.2974 203.662 87.6946 203.258 88.2554C203.161 88.3895 203.075 88.5315 203.002 88.6801Z" fill="white"/>
<path d="M226.504 93.1705L230.391 93.9131C230.619 93.9563 230.853 93.9503 231.078 93.8956C231.303 93.8409 231.514 93.7387 231.697 93.5959L234.815 91.1509L226.504 93.1705Z" fill="white"/>
<path d="M206.702 63.7838C206.884 64.535 207.356 65.1831 208.013 65.5858C208.67 65.9885 209.46 66.1129 210.209 65.9316L222.629 62.9131C223.377 62.7302 224.023 62.2569 224.424 61.5971C224.825 60.9373 224.949 60.1447 224.769 59.3932C224.672 58.9894 224.489 58.6113 224.234 58.2849C223.89 57.8436 223.427 57.5109 222.9 57.3266C222.373 57.1423 221.805 57.1141 221.262 57.2454L208.842 60.2639C208.093 60.4459 207.447 60.919 207.046 61.5791C206.645 62.2391 206.521 63.0322 206.702 63.7837V63.7838Z" fill="white"/>
<path d="M214.339 90.847L226.505 93.1712L230.391 93.9141C230.619 93.9567 230.852 93.9505 231.077 93.8959C231.302 93.8412 231.513 93.7394 231.696 93.597L234.816 91.1515L233.721 91.4176L231.41 93.228C231.279 93.3297 231.128 93.4024 230.968 93.4414C230.807 93.4805 230.64 93.4849 230.478 93.4545L227.6 92.9051L215.434 90.5809L214.339 90.847ZM250.68 78.1245L250.798 78.6157L251.338 78.1945L250.68 78.1245ZM214.339 90.847L226.505 93.1712L230.391 93.9141C230.619 93.9567 230.852 93.9505 231.077 93.8959C231.302 93.8412 231.513 93.7394 231.696 93.597L234.816 91.1515L233.721 91.4176L231.41 93.228C231.279 93.3297 231.128 93.4024 230.968 93.4414C230.807 93.4805 230.64 93.4849 230.478 93.4545L227.6 92.9051L215.434 90.5809L214.339 90.847ZM214.339 90.847L226.505 93.1712L230.391 93.9141C230.619 93.9567 230.852 93.9505 231.077 93.8959C231.302 93.8412 231.513 93.7394 231.696 93.597L234.816 91.1515L233.721 91.4176L231.41 93.228C231.279 93.3297 231.128 93.4024 230.968 93.4414C230.807 93.4805 230.64 93.4849 230.478 93.4545L227.6 92.9051L215.434 90.5809L214.339 90.847ZM174.701 85.1467L188.429 142.079C188.531 142.5 188.795 142.863 189.163 143.088C189.532 143.314 189.974 143.384 190.393 143.282L289.756 119.134C290.176 119.032 290.537 118.767 290.762 118.398C290.986 118.028 291.056 117.584 290.955 117.163L277.226 60.2305C277.163 59.9648 277.034 59.7194 276.851 59.5171C276.668 59.3149 276.437 59.1623 276.179 59.0737C275.989 59.0066 275.788 58.9762 275.587 58.9842C275.352 58.991 275.122 59.0517 274.914 59.1617C274.818 59.2074 274.728 59.2638 274.645 59.3298L266.49 65.7224L254.647 75.0099L250.679 78.1211L250.68 78.1245L250.677 78.1253L236.127 89.5278L233.721 91.4176L231.41 93.228C231.279 93.3296 231.128 93.4024 230.968 93.4414C230.807 93.4805 230.64 93.4849 230.478 93.4545L227.6 92.9051L215.434 90.5809L203.257 88.2558L176.586 83.1605C176.359 83.1152 176.124 83.1203 175.899 83.1754C175.596 83.2498 175.32 83.4101 175.105 83.6372C175.023 83.7264 174.949 83.8236 174.886 83.9274C174.667 84.2935 174.6 84.7316 174.701 85.1467ZM214.339 90.847L226.505 93.1712L230.391 93.9141C230.619 93.9567 230.852 93.9505 231.077 93.8959C231.302 93.8412 231.513 93.7394 231.696 93.597L234.816 91.1515L233.721 91.4176L231.41 93.228C231.279 93.3297 231.128 93.4024 230.968 93.4414C230.807 93.4805 230.64 93.4849 230.478 93.4545L227.6 92.9051L215.434 90.5809L214.339 90.847ZM214.339 90.847L226.505 93.1712L230.391 93.9141C230.619 93.9567 230.852 93.9505 231.077 93.8959C231.302 93.8412 231.513 93.7394 231.696 93.597L234.816 91.1515L233.721 91.4176L231.41 93.228C231.279 93.3297 231.128 93.4024 230.968 93.4414C230.807 93.4805 230.64 93.4849 230.478 93.4545L227.6 92.9051L215.434 90.5809L214.339 90.847ZM214.339 90.847L226.505 93.1712L230.391 93.9141C230.619 93.9567 230.852 93.9505 231.077 93.8959C231.302 93.8412 231.513 93.7394 231.696 93.597L234.816 91.1515L233.721 91.4176L231.41 93.228C231.279 93.3297 231.128 93.4024 230.968 93.4414C230.807 93.4805 230.64 93.4849 230.478 93.4545L227.6 92.9051L215.434 90.5809L214.339 90.847Z" fill="white"/>
<path d="M214.339 90.847L226.505 93.1712L230.391 93.9141C230.619 93.9567 230.852 93.9505 231.077 93.8959C231.302 93.8412 231.513 93.7394 231.696 93.597L234.816 91.1515L233.721 91.4176L231.41 93.228C231.279 93.3296 231.128 93.4024 230.968 93.4414C230.807 93.4805 230.64 93.4849 230.478 93.4545L227.6 92.9051L215.434 90.5809L214.339 90.847ZM250.68 78.1245L250.798 78.6157L251.338 78.1945L250.68 78.1245ZM214.339 90.847L226.505 93.1712L230.391 93.9141C230.619 93.9567 230.852 93.9505 231.077 93.8959C231.302 93.8412 231.513 93.7394 231.696 93.597L234.816 91.1515L233.721 91.4176L231.41 93.228C231.279 93.3296 231.128 93.4024 230.968 93.4414C230.807 93.4805 230.64 93.4849 230.478 93.4545L227.6 92.9051L215.434 90.5809L214.339 90.847ZM214.339 90.847L226.505 93.1712L230.391 93.9141C230.619 93.9567 230.852 93.9505 231.077 93.8959C231.302 93.8412 231.513 93.7394 231.696 93.597L234.816 91.1515L233.721 91.4176L231.41 93.228C231.279 93.3296 231.128 93.4024 230.968 93.4414C230.807 93.4805 230.64 93.4849 230.478 93.4545L227.6 92.9051L215.434 90.5809L214.339 90.847ZM175.338 83.9625L175.399 84.0079C175.409 83.9913 175.426 83.9764 175.44 83.959C175.574 83.8185 175.742 83.7136 175.926 83.6539C176.111 83.5941 176.308 83.5814 176.499 83.6168L203.003 88.6783L214.339 90.847L226.505 93.1712L230.391 93.9141C230.619 93.9567 230.852 93.9505 231.077 93.8959C231.302 93.8412 231.513 93.7394 231.696 93.597L234.816 91.1514L233.721 91.4176L231.41 93.2279C231.279 93.3296 231.128 93.4024 230.968 93.4414C230.807 93.4805 230.64 93.4849 230.478 93.4544L227.6 92.9051L215.434 90.5809L203.257 88.2558L176.586 83.1605C176.359 83.1152 176.124 83.1203 175.899 83.1754L175.338 83.9625ZM174.701 85.1467L188.429 142.079C188.531 142.5 188.795 142.863 189.163 143.088C189.532 143.314 189.974 143.384 190.393 143.282L289.756 119.134C290.176 119.032 290.537 118.767 290.762 118.398C290.986 118.028 291.056 117.584 290.955 117.163L277.226 60.2305C277.163 59.9648 277.034 59.7194 276.851 59.5171C276.668 59.3149 276.437 59.1623 276.179 59.0737C275.989 59.0066 275.788 58.9762 275.587 58.9842C275.352 58.991 275.122 59.0517 274.914 59.1617C274.818 59.2074 274.728 59.2638 274.645 59.3298L266.49 65.7224L254.647 75.0099L250.679 78.1211L250.68 78.1245L250.677 78.1253L236.127 89.5278L233.721 91.4176L231.41 93.228C231.279 93.3296 231.128 93.4024 230.968 93.4414C230.807 93.4805 230.64 93.4849 230.478 93.4545L227.6 92.9051L215.434 90.5809L203.257 88.2558L176.586 83.1605C176.359 83.1152 176.124 83.1203 175.899 83.1754C175.596 83.2498 175.32 83.41 175.105 83.6372C175.023 83.7264 174.949 83.8236 174.886 83.9273C174.667 84.2935 174.6 84.7316 174.701 85.1467ZM175.154 85.0367C175.113 84.8689 175.11 84.6941 175.146 84.5251C175.181 84.3561 175.254 84.1973 175.359 84.0602C175.368 84.04 175.382 84.0222 175.399 84.0079C175.409 83.9913 175.426 83.9764 175.44 83.959C175.574 83.8185 175.742 83.7136 175.926 83.6539C176.111 83.5941 176.308 83.5814 176.499 83.6168L203.003 88.6783L214.339 90.847L226.505 93.1712L230.391 93.9141C230.619 93.9567 230.852 93.9505 231.077 93.8959C231.302 93.8412 231.513 93.7394 231.696 93.597L234.816 91.1515L236.79 89.6037L250.798 78.6156L251.338 78.1944L254.645 75.601L266.42 66.3689L274.934 59.6947C275.063 59.5933 275.212 59.5208 275.372 59.482C275.417 59.4711 275.462 59.4636 275.507 59.4597C275.547 59.4524 275.588 59.4485 275.628 59.4481C275.764 59.4468 275.899 59.469 276.028 59.5136C276.211 59.5777 276.376 59.6869 276.507 59.8312C276.638 59.9755 276.73 60.1503 276.777 60.3397L290.505 117.272C290.541 117.421 290.548 117.576 290.524 117.728C290.501 117.88 290.448 118.025 290.368 118.156C290.288 118.287 290.184 118.401 290.06 118.492C289.936 118.582 289.796 118.647 289.648 118.683L190.284 142.831C189.985 142.903 189.668 142.853 189.405 142.692C189.143 142.53 188.954 142.27 188.882 141.969L175.154 85.0367ZM214.339 90.847L226.505 93.1712L230.391 93.9141C230.619 93.9567 230.852 93.9505 231.077 93.8959C231.302 93.8412 231.513 93.7394 231.696 93.597L234.816 91.1515L233.721 91.4176L231.41 93.228C231.279 93.3297 231.128 93.4024 230.968 93.4414C230.807 93.4805 230.64 93.4849 230.478 93.4545L227.6 92.9051L215.434 90.5809L214.339 90.847ZM214.339 90.847L226.505 93.1712L230.391 93.9141C230.619 93.9567 230.852 93.9505 231.077 93.8959C231.302 93.8412 231.513 93.7394 231.696 93.597L234.816 91.1515L233.721 91.4176L231.41 93.228C231.279 93.3297 231.128 93.4024 230.968 93.4414C230.807 93.4805 230.64 93.4849 230.478 93.4545L227.6 92.9051L215.434 90.5809L214.339 90.847ZM214.339 90.847L226.505 93.1712L230.391 93.9141C230.619 93.9567 230.852 93.9505 231.077 93.8959C231.302 93.8412 231.513 93.7394 231.696 93.597L234.816 91.1515L233.721 91.4176L231.41 93.228C231.279 93.3297 231.128 93.4024 230.968 93.4414C230.807 93.4805 230.64 93.4849 230.478 93.4545L227.6 92.9051L215.434 90.5809L214.339 90.847Z" fill="#111111"/>
<path d="M263.859 107.949C263.635 107.016 263.789 106.032 264.287 105.213C264.785 104.394 265.586 103.806 266.515 103.58L279.056 100.532C279.984 100.31 280.962 100.466 281.775 100.966C282.589 101.467 283.172 102.27 283.396 103.201C283.621 104.132 283.468 105.114 282.973 105.932C282.477 106.751 281.679 107.339 280.753 107.567L268.212 110.615C267.282 110.84 266.302 110.685 265.486 110.185C264.67 109.686 264.085 108.881 263.859 107.949Z" fill="#131E91"/>
<path d="M125.267 97.3759C126.984 97.3759 128.376 95.9788 128.376 94.2553C128.376 92.5319 126.984 91.1348 125.267 91.1348C123.551 91.1348 122.159 92.5319 122.159 94.2553C122.159 95.9788 123.551 97.3759 125.267 97.3759Z" fill="white"/>
</svg>
